<?xml version="1.0" encoding="utf-8"?>
<!-- Generator: Adobe Illustrator 22.1.0, SVG Export Plug-In . SVG Version: 6.00 Build 0)  -->
<svg version="1.1" id="Layer_1" xmlns="http://www.w3.org/2000/svg" xmlns:xlink="http://www.w3.org/1999/xlink" x="0px" y="0px"
	 viewBox="0 0 1899.9 70.8" style="enable-background:new 0 0 1899.9 70.8;" xml:space="preserve">
<title>Group 5</title>
<desc>Created with Sketch.</desc>
<g id="Website">
	<g id="_x31_.0-Home" transform="translate(-5.000000, -1290.000000)">
		<g id="Group-5" transform="translate(5.000000, 1290.000000)">
			<g id="Icon-Pattern">
				<g id="Black-Icon-Only">
					<g id="Page-1">
						<polygon id="Fill-1" points="20,0 12.5,10.8 5,0 2.5,0 2.5,14.4 5,14.4 5,3.8 12.5,14.5 20,3.9 20,14.4 22.5,14.4 22.5,0 
													"/>
						<polygon id="Fill-2" points="20,14 12.5,24.8 5,14 2.5,14 2.5,28.4 5,28.4 5,17.8 12.5,28.5 20,17.8 20,28.4 22.5,28.4 
							22.5,14 						"/>
						<polygon id="Fill-3" points="20,28 12.5,38.7 5,28 2.5,28 2.5,42.3 5,42.3 5,31.8 12.5,42.5 20,31.8 20,42.3 22.5,42.3 
							22.5,28 						"/>
						<polygon id="Fill-4" points="20,42.2 12.5,53.1 5,42.2 2.5,42.2 2.5,56.7 5,56.7 5,46 12.5,56.8 20,46 20,56.7 22.5,56.7 
							22.5,42.2 						"/>
						<polygon id="Fill-5" points="20,56.3 12.5,67.2 5,56.3 2.5,56.3 2.5,70.8 5,70.8 5,60.2 12.5,71 20,60.2 20,70.8 22.5,70.8 
							22.5,56.3 						"/>
					</g>
				</g>
				<g id="Black-Icon-Only_1_" transform="translate(25.000000, 0.000000)">
					<g id="Page-1_1_">
						<polygon id="Fill-1_1_" points="20,0 12.5,10.8 5,0 2.5,0 2.5,14.4 5,14.4 5,3.8 12.5,14.5 20,3.9 20,14.4 22.5,14.4 22.5,0 
													"/>
						<polygon id="Fill-2_1_" points="20,14 12.5,24.8 5,14 2.5,14 2.5,28.4 5,28.4 5,17.8 12.5,28.5 20,17.8 20,28.4 22.5,28.4 
							22.5,14 						"/>
						<polygon id="Fill-3_1_" points="20,28 12.5,38.7 5,28 2.5,28 2.5,42.3 5,42.3 5,31.8 12.5,42.5 20,31.8 20,42.3 22.5,42.3 
							22.5,28 						"/>
						<polygon id="Fill-4_1_" points="20,42.2 12.5,53.1 5,42.2 2.5,42.2 2.5,56.7 5,56.7 5,46 12.5,56.8 20,46 20,56.7 22.5,56.7 
							22.5,42.2 						"/>
						<polygon id="Fill-5_1_" points="20,56.3 12.5,67.2 5,56.3 2.5,56.3 2.5,70.8 5,70.8 5,60.2 12.5,71 20,60.2 20,70.8 
							22.5,70.8 22.5,56.3 						"/>
					</g>
				</g>
				<g id="Black-Icon-Only_2_" transform="translate(50.000000, 0.000000)">
					<g id="Page-1_2_">
						<polygon id="Fill-1_2_" points="20,0 12.5,10.8 5,0 2.5,0 2.5,14.4 5,14.4 5,3.8 12.5,14.5 20,3.9 20,14.4 22.5,14.4 22.5,0 
													"/>
						<polygon id="Fill-2_2_" points="20,14 12.5,24.8 5,14 2.5,14 2.5,28.4 5,28.4 5,17.8 12.5,28.5 20,17.8 20,28.4 22.5,28.4 
							22.5,14 						"/>
						<polygon id="Fill-3_2_" points="20,28 12.5,38.7 5,28 2.5,28 2.5,42.3 5,42.3 5,31.8 12.5,42.5 20,31.8 20,42.3 22.5,42.3 
							22.5,28 						"/>
						<polygon id="Fill-4_2_" points="20,42.2 12.5,53.1 5,42.2 2.5,42.2 2.5,56.7 5,56.7 5,46 12.5,56.8 20,46 20,56.7 22.5,56.7 
							22.5,42.2 						"/>
						<polygon id="Fill-5_2_" points="20,56.3 12.5,67.2 5,56.3 2.5,56.3 2.5,70.8 5,70.8 5,60.2 12.5,71 20,60.2 20,70.8 
							22.5,70.8 22.5,56.3 						"/>
					</g>
				</g>
				<g id="Black-Icon-Only_3_" transform="translate(75.000000, 0.000000)">
					<g id="Page-1_3_">
						<polygon id="Fill-1_3_" points="20,0 12.5,10.8 5,0 2.5,0 2.5,14.4 5,14.4 5,3.8 12.5,14.5 20,3.9 20,14.4 22.5,14.4 22.5,0 
													"/>
						<polygon id="Fill-2_3_" points="20,14 12.5,24.8 5,14 2.5,14 2.5,28.4 5,28.4 5,17.8 12.5,28.5 20,17.8 20,28.4 22.5,28.4 
							22.5,14 						"/>
						<polygon id="Fill-3_3_" points="20,28 12.5,38.7 5,28 2.5,28 2.5,42.3 5,42.3 5,31.8 12.5,42.5 20,31.8 20,42.3 22.5,42.3 
							22.5,28 						"/>
						<polygon id="Fill-4_3_" points="20,42.2 12.5,53.1 5,42.2 2.5,42.2 2.5,56.7 5,56.7 5,46 12.5,56.8 20,46 20,56.7 22.5,56.7 
							22.5,42.2 						"/>
						<polygon id="Fill-5_3_" points="20,56.3 12.5,67.2 5,56.3 2.5,56.3 2.5,70.8 5,70.8 5,60.2 12.5,71 20,60.2 20,70.8 
							22.5,70.8 22.5,56.3 						"/>
					</g>
				</g>
				<g id="Black-Icon-Only_4_" transform="translate(100.000000, 0.000000)">
					<g id="Page-1_4_">
						<polygon id="Fill-1_4_" points="20,0 12.5,10.8 5,0 2.5,0 2.5,14.4 5,14.4 5,3.8 12.5,14.5 20,3.9 20,14.4 22.5,14.4 22.5,0 
													"/>
						<polygon id="Fill-2_4_" points="20,14 12.5,24.8 5,14 2.5,14 2.5,28.4 5,28.4 5,17.8 12.5,28.5 20,17.8 20,28.4 22.5,28.4 
							22.5,14 						"/>
						<polygon id="Fill-3_4_" points="20,28 12.5,38.7 5,28 2.5,28 2.5,42.3 5,42.3 5,31.8 12.5,42.5 20,31.8 20,42.3 22.5,42.3 
							22.5,28 						"/>
						<polygon id="Fill-4_4_" points="20,42.2 12.5,53.1 5,42.2 2.5,42.2 2.5,56.7 5,56.7 5,46 12.5,56.8 20,46 20,56.7 22.5,56.7 
							22.5,42.2 						"/>
						<polygon id="Fill-5_4_" points="20,56.3 12.5,67.2 5,56.3 2.5,56.3 2.5,70.8 5,70.8 5,60.2 12.5,71 20,60.2 20,70.8 
							22.5,70.8 22.5,56.3 						"/>
					</g>
				</g>
				<g id="Black-Icon-Only_5_" transform="translate(125.000000, 0.000000)">
					<g id="Page-1_5_">
						<polygon id="Fill-1_5_" points="20,0 12.5,10.8 5,0 2.5,0 2.5,14.4 5,14.4 5,3.8 12.5,14.5 20,3.9 20,14.4 22.5,14.4 22.5,0 
													"/>
						<polygon id="Fill-2_5_" points="20,14 12.5,24.8 5,14 2.5,14 2.5,28.4 5,28.4 5,17.8 12.5,28.5 20,17.8 20,28.4 22.5,28.4 
							22.5,14 						"/>
						<polygon id="Fill-3_5_" points="20,28 12.5,38.7 5,28 2.5,28 2.5,42.3 5,42.3 5,31.8 12.5,42.5 20,31.8 20,42.3 22.5,42.3 
							22.5,28 						"/>
						<polygon id="Fill-4_5_" points="20,42.2 12.5,53.1 5,42.2 2.5,42.2 2.5,56.7 5,56.7 5,46 12.5,56.8 20,46 20,56.7 22.5,56.7 
							22.5,42.2 						"/>
						<polygon id="Fill-5_5_" points="20,56.3 12.5,67.2 5,56.3 2.5,56.3 2.5,70.8 5,70.8 5,60.2 12.5,71 20,60.2 20,70.8 
							22.5,70.8 22.5,56.3 						"/>
					</g>
				</g>
				<g id="Black-Icon-Only_6_" transform="translate(150.000000, 0.000000)">
					<g id="Page-1_6_">
						<polygon id="Fill-1_6_" points="20,0 12.5,10.8 5,0 2.5,0 2.5,14.4 5,14.4 5,3.8 12.5,14.5 20,3.9 20,14.4 22.5,14.4 22.5,0 
													"/>
						<polygon id="Fill-2_6_" points="20,14 12.5,24.8 5,14 2.5,14 2.5,28.4 5,28.4 5,17.8 12.5,28.5 20,17.8 20,28.4 22.5,28.4 
							22.5,14 						"/>
						<polygon id="Fill-3_6_" points="20,28 12.5,38.7 5,28 2.5,28 2.5,42.3 5,42.3 5,31.8 12.5,42.5 20,31.8 20,42.3 22.5,42.3 
							22.5,28 						"/>
						<polygon id="Fill-4_6_" points="20,42.2 12.5,53.1 5,42.2 2.5,42.2 2.5,56.7 5,56.7 5,46 12.5,56.8 20,46 20,56.7 22.5,56.7 
							22.5,42.2 						"/>
						<polygon id="Fill-5_6_" points="20,56.3 12.5,67.2 5,56.3 2.5,56.3 2.5,70.8 5,70.8 5,60.2 12.5,71 20,60.2 20,70.8 
							22.5,70.8 22.5,56.3 						"/>
					</g>
				</g>
				<g id="Black-Icon-Only_7_" transform="translate(175.000000, 0.000000)">
					<g id="Page-1_7_">
						<polygon id="Fill-1_7_" points="20,0 12.5,10.8 5,0 2.5,0 2.5,14.4 5,14.4 5,3.8 12.5,14.5 20,3.9 20,14.4 22.5,14.4 22.5,0 
													"/>
						<polygon id="Fill-2_7_" points="20,14 12.5,24.8 5,14 2.5,14 2.5,28.4 5,28.4 5,17.8 12.5,28.5 20,17.8 20,28.4 22.5,28.4 
							22.5,14 						"/>
						<polygon id="Fill-3_7_" points="20,28 12.5,38.7 5,28 2.5,28 2.5,42.3 5,42.3 5,31.8 12.5,42.5 20,31.8 20,42.3 22.5,42.3 
							22.5,28 						"/>
						<polygon id="Fill-4_7_" points="20,42.2 12.5,53.1 5,42.2 2.5,42.2 2.5,56.7 5,56.7 5,46 12.5,56.8 20,46 20,56.7 22.5,56.7 
							22.5,42.2 						"/>
						<polygon id="Fill-5_7_" points="20,56.3 12.5,67.2 5,56.3 2.5,56.3 2.5,70.8 5,70.8 5,60.2 12.5,71 20,60.2 20,70.8 
							22.5,70.8 22.5,56.3 						"/>
					</g>
				</g>
				<g id="Black-Icon-Only_8_" transform="translate(200.000000, 0.000000)">
					<g id="Page-1_8_">
						<polygon id="Fill-1_8_" points="20,0 12.5,10.8 5,0 2.5,0 2.5,14.4 5,14.4 5,3.8 12.5,14.5 20,3.9 20,14.4 22.5,14.4 22.5,0 
													"/>
						<polygon id="Fill-2_8_" points="20,14 12.5,24.8 5,14 2.5,14 2.5,28.4 5,28.4 5,17.8 12.5,28.5 20,17.8 20,28.4 22.5,28.4 
							22.5,14 						"/>
						<polygon id="Fill-3_8_" points="20,28 12.5,38.7 5,28 2.5,28 2.5,42.3 5,42.3 5,31.8 12.5,42.5 20,31.8 20,42.3 22.5,42.3 
							22.5,28 						"/>
						<polygon id="Fill-4_8_" points="20,42.2 12.5,53.1 5,42.2 2.5,42.2 2.5,56.7 5,56.7 5,46 12.5,56.8 20,46 20,56.7 22.5,56.7 
							22.5,42.2 						"/>
						<polygon id="Fill-5_8_" points="20,56.3 12.5,67.2 5,56.3 2.5,56.3 2.5,70.8 5,70.8 5,60.2 12.5,71 20,60.2 20,70.8 
							22.5,70.8 22.5,56.3 						"/>
					</g>
				</g>
				<g id="Black-Icon-Only_9_" transform="translate(225.000000, 0.000000)">
					<g id="Page-1_9_">
						<polygon id="Fill-1_9_" points="20,0 12.5,10.8 5,0 2.5,0 2.5,14.4 5,14.4 5,3.8 12.5,14.5 20,3.9 20,14.4 22.5,14.4 22.5,0 
													"/>
						<polygon id="Fill-2_9_" points="20,14 12.5,24.8 5,14 2.5,14 2.5,28.4 5,28.4 5,17.8 12.5,28.5 20,17.8 20,28.4 22.5,28.4 
							22.5,14 						"/>
						<polygon id="Fill-3_9_" points="20,28 12.5,38.7 5,28 2.5,28 2.5,42.3 5,42.3 5,31.8 12.5,42.5 20,31.8 20,42.3 22.5,42.3 
							22.5,28 						"/>
						<polygon id="Fill-4_9_" points="20,42.2 12.5,53.1 5,42.2 2.5,42.2 2.5,56.7 5,56.7 5,46 12.5,56.8 20,46 20,56.7 22.5,56.7 
							22.5,42.2 						"/>
						<polygon id="Fill-5_9_" points="20,56.3 12.5,67.2 5,56.3 2.5,56.3 2.5,70.8 5,70.8 5,60.2 12.5,71 20,60.2 20,70.8 
							22.5,70.8 22.5,56.3 						"/>
					</g>
				</g>
				<g id="Black-Icon-Only_10_" transform="translate(250.000000, 0.000000)">
					<g id="Page-1_10_">
						<polygon id="Fill-1_10_" points="20,0 12.5,10.8 5,0 2.5,0 2.5,14.4 5,14.4 5,3.8 12.5,14.5 20,3.9 20,14.4 22.5,14.4 22.5,0 
													"/>
						<polygon id="Fill-2_10_" points="20,14 12.5,24.8 5,14 2.5,14 2.5,28.4 5,28.4 5,17.8 12.5,28.5 20,17.8 20,28.4 22.5,28.4 
							22.5,14 						"/>
						<polygon id="Fill-3_10_" points="20,28 12.5,38.7 5,28 2.5,28 2.5,42.3 5,42.3 5,31.8 12.5,42.5 20,31.8 20,42.3 22.5,42.3 
							22.5,28 						"/>
						<polygon id="Fill-4_10_" points="20,42.2 12.5,53.1 5,42.2 2.5,42.2 2.5,56.7 5,56.7 5,46 12.5,56.8 20,46 20,56.7 22.5,56.7 
							22.5,42.2 						"/>
						<polygon id="Fill-5_10_" points="20,56.3 12.5,67.2 5,56.3 2.5,56.3 2.5,70.8 5,70.8 5,60.2 12.5,71 20,60.2 20,70.8 
							22.5,70.8 22.5,56.3 						"/>
					</g>
				</g>
				<g id="Black-Icon-Only_11_" transform="translate(275.000000, 0.000000)">
					<g id="Page-1_11_">
						<polygon id="Fill-1_11_" points="20,0 12.5,10.8 5,0 2.5,0 2.5,14.4 5,14.4 5,3.8 12.5,14.5 20,3.9 20,14.4 22.5,14.4 22.5,0 
													"/>
						<polygon id="Fill-2_11_" points="20,14 12.5,24.8 5,14 2.5,14 2.5,28.4 5,28.4 5,17.8 12.5,28.5 20,17.8 20,28.4 22.5,28.4 
							22.5,14 						"/>
						<polygon id="Fill-3_11_" points="20,28 12.5,38.7 5,28 2.5,28 2.5,42.3 5,42.3 5,31.8 12.5,42.5 20,31.8 20,42.3 22.5,42.3 
							22.5,28 						"/>
						<polygon id="Fill-4_11_" points="20,42.2 12.5,53.1 5,42.2 2.5,42.2 2.5,56.7 5,56.7 5,46 12.5,56.8 20,46 20,56.7 22.5,56.7 
							22.5,42.2 						"/>
						<polygon id="Fill-5_11_" points="20,56.3 12.5,67.2 5,56.3 2.5,56.3 2.5,70.8 5,70.8 5,60.2 12.5,71 20,60.2 20,70.8 
							22.5,70.8 22.5,56.3 						"/>
					</g>
				</g>
				<g id="Black-Icon-Only_12_" transform="translate(300.000000, 0.000000)">
					<g id="Page-1_12_">
						<polygon id="Fill-1_12_" points="20,0 12.5,10.8 5,0 2.5,0 2.5,14.4 5,14.4 5,3.8 12.5,14.5 20,3.9 20,14.4 22.5,14.4 22.5,0 
													"/>
						<polygon id="Fill-2_12_" points="20,14 12.5,24.8 5,14 2.5,14 2.5,28.4 5,28.4 5,17.8 12.5,28.5 20,17.8 20,28.4 22.5,28.4 
							22.5,14 						"/>
						<polygon id="Fill-3_12_" points="20,28 12.5,38.7 5,28 2.5,28 2.5,42.3 5,42.3 5,31.8 12.5,42.5 20,31.8 20,42.3 22.5,42.3 
							22.5,28 						"/>
						<polygon id="Fill-4_12_" points="20,42.2 12.5,53.1 5,42.2 2.5,42.2 2.5,56.7 5,56.7 5,46 12.5,56.8 20,46 20,56.7 22.5,56.7 
							22.5,42.2 						"/>
						<polygon id="Fill-5_12_" points="20,56.3 12.5,67.2 5,56.3 2.5,56.3 2.5,70.8 5,70.8 5,60.2 12.5,71 20,60.2 20,70.8 
							22.5,70.8 22.5,56.3 						"/>
					</g>
				</g>
				<g id="Black-Icon-Only_13_" transform="translate(325.000000, 0.000000)">
					<g id="Page-1_13_">
						<polygon id="Fill-1_13_" points="20,0 12.5,10.8 5,0 2.5,0 2.5,14.4 5,14.4 5,3.8 12.5,14.5 20,3.9 20,14.4 22.5,14.4 22.5,0 
													"/>
						<polygon id="Fill-2_13_" points="20,14 12.5,24.8 5,14 2.5,14 2.5,28.4 5,28.4 5,17.8 12.5,28.5 20,17.8 20,28.4 22.5,28.4 
							22.5,14 						"/>
						<polygon id="Fill-3_13_" points="20,28 12.5,38.7 5,28 2.5,28 2.5,42.3 5,42.3 5,31.8 12.5,42.5 20,31.8 20,42.3 22.5,42.3 
							22.5,28 						"/>
						<polygon id="Fill-4_13_" points="20,42.2 12.5,53.1 5,42.2 2.5,42.2 2.5,56.7 5,56.7 5,46 12.5,56.8 20,46 20,56.7 22.5,56.7 
							22.5,42.2 						"/>
						<polygon id="Fill-5_13_" points="20,56.3 12.5,67.2 5,56.3 2.5,56.3 2.5,70.8 5,70.8 5,60.2 12.5,71 20,60.2 20,70.8 
							22.5,70.8 22.5,56.3 						"/>
					</g>
				</g>
				<g id="Black-Icon-Only_14_" transform="translate(350.000000, 0.000000)">
					<g id="Page-1_14_">
						<polygon id="Fill-1_14_" points="20,0 12.5,10.8 5,0 2.5,0 2.5,14.4 5,14.4 5,3.8 12.5,14.5 20,3.9 20,14.4 22.5,14.4 22.5,0 
													"/>
						<polygon id="Fill-2_14_" points="20,14 12.5,24.8 5,14 2.5,14 2.5,28.4 5,28.4 5,17.8 12.5,28.5 20,17.8 20,28.4 22.5,28.4 
							22.5,14 						"/>
						<polygon id="Fill-3_14_" points="20,28 12.5,38.7 5,28 2.5,28 2.5,42.3 5,42.3 5,31.8 12.5,42.5 20,31.8 20,42.3 22.5,42.3 
							22.5,28 						"/>
						<polygon id="Fill-4_14_" points="20,42.2 12.5,53.1 5,42.2 2.5,42.2 2.5,56.7 5,56.7 5,46 12.5,56.8 20,46 20,56.7 22.5,56.7 
							22.5,42.2 						"/>
						<polygon id="Fill-5_14_" points="20,56.3 12.5,67.2 5,56.3 2.5,56.3 2.5,70.8 5,70.8 5,60.2 12.5,71 20,60.2 20,70.8 
							22.5,70.8 22.5,56.3 						"/>
					</g>
				</g>
				<g id="Black-Icon-Only_15_" transform="translate(375.000000, 0.000000)">
					<g id="Page-1_15_">
						<polygon id="Fill-1_15_" points="20,0 12.5,10.8 5,0 2.5,0 2.5,14.4 5,14.4 5,3.8 12.5,14.5 20,3.9 20,14.4 22.5,14.4 22.5,0 
													"/>
						<polygon id="Fill-2_15_" points="20,14 12.5,24.8 5,14 2.5,14 2.5,28.4 5,28.4 5,17.8 12.5,28.5 20,17.8 20,28.4 22.5,28.4 
							22.5,14 						"/>
						<polygon id="Fill-3_15_" points="20,28 12.5,38.7 5,28 2.5,28 2.5,42.3 5,42.3 5,31.8 12.5,42.5 20,31.8 20,42.3 22.5,42.3 
							22.5,28 						"/>
						<polygon id="Fill-4_15_" points="20,42.2 12.5,53.1 5,42.2 2.5,42.2 2.5,56.7 5,56.7 5,46 12.5,56.8 20,46 20,56.7 22.5,56.7 
							22.5,42.2 						"/>
						<polygon id="Fill-5_15_" points="20,56.3 12.5,67.2 5,56.3 2.5,56.3 2.5,70.8 5,70.8 5,60.2 12.5,71 20,60.2 20,70.8 
							22.5,70.8 22.5,56.3 						"/>
					</g>
				</g>
				<g id="Black-Icon-Only_16_" transform="translate(400.000000, 0.000000)">
					<g id="Page-1_16_">
						<polygon id="Fill-1_16_" points="20,0 12.5,10.8 5,0 2.5,0 2.5,14.4 5,14.4 5,3.8 12.5,14.5 20,3.9 20,14.4 22.5,14.4 22.5,0 
													"/>
						<polygon id="Fill-2_16_" points="20,14 12.5,24.8 5,14 2.5,14 2.5,28.4 5,28.4 5,17.8 12.5,28.5 20,17.8 20,28.4 22.5,28.4 
							22.5,14 						"/>
						<polygon id="Fill-3_16_" points="20,28 12.5,38.7 5,28 2.5,28 2.5,42.3 5,42.3 5,31.8 12.5,42.5 20,31.8 20,42.3 22.5,42.3 
							22.5,28 						"/>
						<polygon id="Fill-4_16_" points="20,42.2 12.5,53.1 5,42.2 2.5,42.2 2.5,56.7 5,56.7 5,46 12.5,56.8 20,46 20,56.7 22.5,56.7 
							22.5,42.2 						"/>
						<polygon id="Fill-5_16_" points="20,56.3 12.5,67.2 5,56.3 2.5,56.3 2.5,70.8 5,70.8 5,60.2 12.5,71 20,60.2 20,70.8 
							22.5,70.8 22.5,56.3 						"/>
					</g>
				</g>
				<g id="Black-Icon-Only_17_" transform="translate(425.000000, 0.000000)">
					<g id="Page-1_17_">
						<polygon id="Fill-1_17_" points="20,0 12.5,10.8 5,0 2.5,0 2.5,14.4 5,14.4 5,3.8 12.5,14.5 20,3.9 20,14.4 22.5,14.4 22.5,0 
													"/>
						<polygon id="Fill-2_17_" points="20,14 12.5,24.8 5,14 2.5,14 2.5,28.4 5,28.4 5,17.8 12.5,28.5 20,17.8 20,28.4 22.5,28.4 
							22.5,14 						"/>
						<polygon id="Fill-3_17_" points="20,28 12.5,38.7 5,28 2.5,28 2.5,42.3 5,42.3 5,31.8 12.5,42.5 20,31.8 20,42.3 22.5,42.3 
							22.5,28 						"/>
						<polygon id="Fill-4_17_" points="20,42.2 12.5,53.1 5,42.2 2.5,42.2 2.5,56.7 5,56.7 5,46 12.5,56.8 20,46 20,56.7 22.5,56.7 
							22.5,42.2 						"/>
						<polygon id="Fill-5_17_" points="20,56.3 12.5,67.2 5,56.3 2.5,56.3 2.5,70.8 5,70.8 5,60.2 12.5,71 20,60.2 20,70.8 
							22.5,70.8 22.5,56.3 						"/>
					</g>
				</g>
				<g id="Black-Icon-Only_18_" transform="translate(450.000000, 0.000000)">
					<g id="Page-1_18_">
						<polygon id="Fill-1_18_" points="20,0 12.5,10.8 5,0 2.5,0 2.5,14.4 5,14.4 5,3.8 12.5,14.5 20,3.9 20,14.4 22.5,14.4 22.5,0 
													"/>
						<polygon id="Fill-2_18_" points="20,14 12.5,24.8 5,14 2.5,14 2.5,28.4 5,28.4 5,17.8 12.5,28.5 20,17.8 20,28.4 22.5,28.4 
							22.5,14 						"/>
						<polygon id="Fill-3_18_" points="20,28 12.5,38.7 5,28 2.5,28 2.5,42.3 5,42.3 5,31.8 12.5,42.5 20,31.8 20,42.3 22.5,42.3 
							22.5,28 						"/>
						<polygon id="Fill-4_18_" points="20,42.2 12.5,53.1 5,42.2 2.5,42.2 2.5,56.7 5,56.7 5,46 12.5,56.8 20,46 20,56.7 22.5,56.7 
							22.5,42.2 						"/>
						<polygon id="Fill-5_18_" points="20,56.3 12.5,67.2 5,56.3 2.5,56.3 2.5,70.8 5,70.8 5,60.2 12.5,71 20,60.2 20,70.8 
							22.5,70.8 22.5,56.3 						"/>
					</g>
				</g>
				<g id="Black-Icon-Only_19_" transform="translate(475.000000, 0.000000)">
					<g id="Page-1_19_">
						<polygon id="Fill-1_19_" points="20,0 12.5,10.8 5,0 2.5,0 2.5,14.4 5,14.4 5,3.8 12.5,14.5 20,3.9 20,14.4 22.5,14.4 22.5,0 
													"/>
						<polygon id="Fill-2_19_" points="20,14 12.5,24.8 5,14 2.5,14 2.5,28.4 5,28.4 5,17.8 12.5,28.5 20,17.8 20,28.4 22.5,28.4 
							22.5,14 						"/>
						<polygon id="Fill-3_19_" points="20,28 12.5,38.7 5,28 2.5,28 2.5,42.3 5,42.3 5,31.8 12.5,42.5 20,31.8 20,42.3 22.5,42.3 
							22.5,28 						"/>
						<polygon id="Fill-4_19_" points="20,42.2 12.5,53.1 5,42.2 2.5,42.2 2.5,56.7 5,56.7 5,46 12.5,56.8 20,46 20,56.7 22.5,56.7 
							22.5,42.2 						"/>
						<polygon id="Fill-5_19_" points="20,56.3 12.5,67.2 5,56.3 2.5,56.3 2.5,70.8 5,70.8 5,60.2 12.5,71 20,60.2 20,70.8 
							22.5,70.8 22.5,56.3 						"/>
					</g>
				</g>
				<g id="Black-Icon-Only_20_" transform="translate(500.000000, 0.000000)">
					<g id="Page-1_20_">
						<polygon id="Fill-1_20_" points="20,0 12.5,10.8 5,0 2.5,0 2.5,14.4 5,14.4 5,3.8 12.5,14.5 20,3.9 20,14.4 22.5,14.4 22.5,0 
													"/>
						<polygon id="Fill-2_20_" points="20,14 12.5,24.8 5,14 2.5,14 2.5,28.4 5,28.4 5,17.8 12.5,28.5 20,17.8 20,28.4 22.5,28.4 
							22.5,14 						"/>
						<polygon id="Fill-3_20_" points="20,28 12.5,38.7 5,28 2.5,28 2.5,42.3 5,42.3 5,31.8 12.5,42.5 20,31.8 20,42.3 22.5,42.3 
							22.5,28 						"/>
						<polygon id="Fill-4_20_" points="20,42.2 12.5,53.1 5,42.2 2.5,42.2 2.5,56.7 5,56.7 5,46 12.5,56.8 20,46 20,56.7 22.5,56.7 
							22.5,42.2 						"/>
						<polygon id="Fill-5_20_" points="20,56.3 12.5,67.2 5,56.3 2.5,56.3 2.5,70.8 5,70.8 5,60.2 12.5,71 20,60.2 20,70.8 
							22.5,70.8 22.5,56.3 						"/>
					</g>
				</g>
				<g id="Black-Icon-Only_21_" transform="translate(525.000000, 0.000000)">
					<g id="Page-1_21_">
						<polygon id="Fill-1_21_" points="20,0 12.5,10.8 5,0 2.5,0 2.5,14.4 5,14.4 5,3.8 12.5,14.5 20,3.9 20,14.4 22.5,14.4 22.5,0 
													"/>
						<polygon id="Fill-2_21_" points="20,14 12.5,24.8 5,14 2.5,14 2.5,28.4 5,28.4 5,17.8 12.5,28.5 20,17.8 20,28.4 22.5,28.4 
							22.5,14 						"/>
						<polygon id="Fill-3_21_" points="20,28 12.5,38.7 5,28 2.5,28 2.5,42.3 5,42.3 5,31.8 12.5,42.5 20,31.8 20,42.3 22.5,42.3 
							22.5,28 						"/>
						<polygon id="Fill-4_21_" points="20,42.2 12.5,53.1 5,42.2 2.5,42.2 2.5,56.7 5,56.7 5,46 12.5,56.8 20,46 20,56.7 22.5,56.7 
							22.5,42.2 						"/>
						<polygon id="Fill-5_21_" points="20,56.3 12.5,67.2 5,56.3 2.5,56.3 2.5,70.8 5,70.8 5,60.2 12.5,71 20,60.2 20,70.8 
							22.5,70.8 22.5,56.3 						"/>
					</g>
				</g>
				<g id="Black-Icon-Only_22_" transform="translate(550.000000, 0.000000)">
					<g id="Page-1_22_">
						<polygon id="Fill-1_22_" points="20,0 12.5,10.8 5,0 2.5,0 2.5,14.4 5,14.4 5,3.8 12.5,14.5 20,3.9 20,14.4 22.5,14.4 22.5,0 
													"/>
						<polygon id="Fill-2_22_" points="20,14 12.5,24.8 5,14 2.5,14 2.5,28.4 5,28.4 5,17.8 12.5,28.5 20,17.8 20,28.4 22.5,28.4 
							22.5,14 						"/>
						<polygon id="Fill-3_22_" points="20,28 12.5,38.7 5,28 2.5,28 2.5,42.3 5,42.3 5,31.8 12.5,42.5 20,31.8 20,42.3 22.5,42.3 
							22.5,28 						"/>
						<polygon id="Fill-4_22_" points="20,42.2 12.5,53.1 5,42.2 2.5,42.2 2.5,56.7 5,56.7 5,46 12.5,56.8 20,46 20,56.7 22.5,56.7 
							22.5,42.2 						"/>
						<polygon id="Fill-5_22_" points="20,56.3 12.5,67.2 5,56.3 2.5,56.3 2.5,70.8 5,70.8 5,60.2 12.5,71 20,60.2 20,70.8 
							22.5,70.8 22.5,56.3 						"/>
					</g>
				</g>
				<g id="Black-Icon-Only_23_" transform="translate(575.000000, 0.000000)">
					<g id="Page-1_23_">
						<polygon id="Fill-1_23_" points="20,0 12.5,10.8 5,0 2.5,0 2.5,14.4 5,14.4 5,3.8 12.5,14.5 20,3.9 20,14.4 22.5,14.4 22.5,0 
													"/>
						<polygon id="Fill-2_23_" points="20,14 12.5,24.8 5,14 2.5,14 2.5,28.4 5,28.4 5,17.8 12.5,28.5 20,17.8 20,28.4 22.5,28.4 
							22.5,14 						"/>
						<polygon id="Fill-3_23_" points="20,28 12.5,38.7 5,28 2.5,28 2.5,42.3 5,42.3 5,31.8 12.5,42.5 20,31.8 20,42.3 22.5,42.3 
							22.5,28 						"/>
						<polygon id="Fill-4_23_" points="20,42.2 12.5,53.1 5,42.2 2.5,42.2 2.5,56.7 5,56.7 5,46 12.5,56.8 20,46 20,56.7 22.5,56.7 
							22.5,42.2 						"/>
						<polygon id="Fill-5_23_" points="20,56.3 12.5,67.2 5,56.3 2.5,56.3 2.5,70.8 5,70.8 5,60.2 12.5,71 20,60.2 20,70.8 
							22.5,70.8 22.5,56.3 						"/>
					</g>
				</g>
				<g id="Black-Icon-Only_24_" transform="translate(600.000000, 0.000000)">
					<g id="Page-1_24_">
						<polygon id="Fill-1_24_" points="20,0 12.5,10.8 5,0 2.5,0 2.5,14.4 5,14.4 5,3.8 12.5,14.5 20,3.9 20,14.4 22.5,14.4 22.5,0 
													"/>
						<polygon id="Fill-2_24_" points="20,14 12.5,24.8 5,14 2.5,14 2.5,28.4 5,28.4 5,17.8 12.5,28.5 20,17.8 20,28.4 22.5,28.4 
							22.5,14 						"/>
						<polygon id="Fill-3_24_" points="20,28 12.5,38.7 5,28 2.5,28 2.5,42.3 5,42.3 5,31.8 12.5,42.5 20,31.8 20,42.3 22.5,42.3 
							22.5,28 						"/>
						<polygon id="Fill-4_24_" points="20,42.2 12.5,53.1 5,42.2 2.5,42.2 2.5,56.7 5,56.7 5,46 12.5,56.8 20,46 20,56.7 22.5,56.7 
							22.5,42.2 						"/>
						<polygon id="Fill-5_24_" points="20,56.3 12.5,67.2 5,56.3 2.5,56.3 2.5,70.8 5,70.8 5,60.2 12.5,71 20,60.2 20,70.8 
							22.5,70.8 22.5,56.3 						"/>
					</g>
				</g>
				<g id="Black-Icon-Only_25_" transform="translate(625.000000, 0.000000)">
					<g id="Page-1_25_">
						<polygon id="Fill-1_25_" points="20,0 12.5,10.8 5,0 2.5,0 2.5,14.4 5,14.4 5,3.8 12.5,14.5 20,3.9 20,14.4 22.5,14.4 22.5,0 
													"/>
						<polygon id="Fill-2_25_" points="20,14 12.5,24.8 5,14 2.5,14 2.5,28.4 5,28.4 5,17.8 12.5,28.5 20,17.8 20,28.4 22.5,28.4 
							22.5,14 						"/>
						<polygon id="Fill-3_25_" points="20,28 12.5,38.7 5,28 2.5,28 2.5,42.3 5,42.3 5,31.8 12.5,42.5 20,31.8 20,42.3 22.5,42.3 
							22.5,28 						"/>
						<polygon id="Fill-4_25_" points="20,42.2 12.5,53.1 5,42.2 2.5,42.2 2.5,56.7 5,56.7 5,46 12.5,56.8 20,46 20,56.7 22.5,56.7 
							22.5,42.2 						"/>
						<polygon id="Fill-5_25_" points="20,56.3 12.5,67.2 5,56.3 2.5,56.3 2.5,70.8 5,70.8 5,60.2 12.5,71 20,60.2 20,70.8 
							22.5,70.8 22.5,56.3 						"/>
					</g>
				</g>
				<g id="Black-Icon-Only_26_" transform="translate(650.000000, 0.000000)">
					<g id="Page-1_26_">
						<polygon id="Fill-1_26_" points="20,0 12.5,10.8 5,0 2.5,0 2.5,14.4 5,14.4 5,3.8 12.5,14.5 20,3.9 20,14.4 22.5,14.4 22.5,0 
													"/>
						<polygon id="Fill-2_26_" points="20,14 12.5,24.8 5,14 2.5,14 2.5,28.4 5,28.4 5,17.8 12.5,28.5 20,17.8 20,28.4 22.5,28.4 
							22.5,14 						"/>
						<polygon id="Fill-3_26_" points="20,28 12.5,38.7 5,28 2.5,28 2.5,42.3 5,42.3 5,31.8 12.5,42.5 20,31.8 20,42.3 22.5,42.3 
							22.5,28 						"/>
						<polygon id="Fill-4_26_" points="20,42.2 12.5,53.1 5,42.2 2.5,42.2 2.5,56.7 5,56.7 5,46 12.5,56.8 20,46 20,56.7 22.5,56.7 
							22.5,42.2 						"/>
						<polygon id="Fill-5_26_" points="20,56.3 12.5,67.2 5,56.3 2.5,56.3 2.5,70.8 5,70.8 5,60.2 12.5,71 20,60.2 20,70.8 
							22.5,70.8 22.5,56.3 						"/>
					</g>
				</g>
				<g id="Black-Icon-Only_27_" transform="translate(675.000000, 0.000000)">
					<g id="Page-1_27_">
						<polygon id="Fill-1_27_" points="20,0 12.5,10.8 5,0 2.5,0 2.5,14.4 5,14.4 5,3.8 12.5,14.5 20,3.9 20,14.4 22.5,14.4 22.5,0 
													"/>
						<polygon id="Fill-2_27_" points="20,14 12.5,24.8 5,14 2.5,14 2.5,28.4 5,28.4 5,17.8 12.5,28.5 20,17.8 20,28.4 22.5,28.4 
							22.5,14 						"/>
						<polygon id="Fill-3_27_" points="20,28 12.5,38.7 5,28 2.5,28 2.5,42.3 5,42.3 5,31.8 12.5,42.5 20,31.8 20,42.3 22.5,42.3 
							22.5,28 						"/>
						<polygon id="Fill-4_27_" points="20,42.2 12.5,53.1 5,42.2 2.5,42.2 2.5,56.7 5,56.7 5,46 12.5,56.8 20,46 20,56.7 22.5,56.7 
							22.5,42.2 						"/>
						<polygon id="Fill-5_27_" points="20,56.3 12.5,67.2 5,56.3 2.5,56.3 2.5,70.8 5,70.8 5,60.2 12.5,71 20,60.2 20,70.8 
							22.5,70.8 22.5,56.3 						"/>
					</g>
				</g>
				<g id="Black-Icon-Only_28_" transform="translate(700.000000, 0.000000)">
					<g id="Page-1_28_">
						<polygon id="Fill-1_28_" points="20,0 12.5,10.8 5,0 2.5,0 2.5,14.4 5,14.4 5,3.8 12.5,14.5 20,3.9 20,14.4 22.5,14.4 22.5,0 
													"/>
						<polygon id="Fill-2_28_" points="20,14 12.5,24.8 5,14 2.5,14 2.5,28.4 5,28.4 5,17.8 12.5,28.5 20,17.8 20,28.4 22.5,28.4 
							22.5,14 						"/>
						<polygon id="Fill-3_28_" points="20,28 12.5,38.7 5,28 2.5,28 2.5,42.3 5,42.3 5,31.8 12.5,42.5 20,31.8 20,42.3 22.5,42.3 
							22.5,28 						"/>
						<polygon id="Fill-4_28_" points="20,42.2 12.5,53.1 5,42.2 2.5,42.2 2.5,56.7 5,56.7 5,46 12.5,56.8 20,46 20,56.7 22.5,56.7 
							22.5,42.2 						"/>
						<polygon id="Fill-5_28_" points="20,56.3 12.5,67.2 5,56.3 2.5,56.3 2.5,70.8 5,70.8 5,60.2 12.5,71 20,60.2 20,70.8 
							22.5,70.8 22.5,56.3 						"/>
					</g>
				</g>
				<g id="Black-Icon-Only_29_" transform="translate(725.000000, 0.000000)">
					<g id="Page-1_29_">
						<polygon id="Fill-1_29_" points="20,0 12.5,10.8 5,0 2.5,0 2.5,14.4 5,14.4 5,3.8 12.5,14.5 20,3.9 20,14.4 22.5,14.4 22.5,0 
													"/>
						<polygon id="Fill-2_29_" points="20,14 12.5,24.8 5,14 2.5,14 2.5,28.4 5,28.4 5,17.8 12.5,28.5 20,17.8 20,28.4 22.5,28.4 
							22.5,14 						"/>
						<polygon id="Fill-3_29_" points="20,28 12.5,38.7 5,28 2.5,28 2.5,42.3 5,42.3 5,31.8 12.5,42.5 20,31.8 20,42.3 22.5,42.3 
							22.5,28 						"/>
						<polygon id="Fill-4_29_" points="20,42.2 12.5,53.1 5,42.2 2.5,42.2 2.5,56.7 5,56.7 5,46 12.5,56.8 20,46 20,56.7 22.5,56.7 
							22.5,42.2 						"/>
						<polygon id="Fill-5_29_" points="20,56.3 12.5,67.2 5,56.3 2.5,56.3 2.5,70.8 5,70.8 5,60.2 12.5,71 20,60.2 20,70.8 
							22.5,70.8 22.5,56.3 						"/>
					</g>
				</g>
				<g id="Black-Icon-Only_30_" transform="translate(750.000000, 0.000000)">
					<g id="Page-1_30_">
						<polygon id="Fill-1_30_" points="20,0 12.5,10.8 5,0 2.5,0 2.5,14.4 5,14.4 5,3.8 12.5,14.5 20,3.9 20,14.4 22.5,14.4 22.5,0 
													"/>
						<polygon id="Fill-2_30_" points="20,14 12.5,24.8 5,14 2.5,14 2.5,28.4 5,28.4 5,17.8 12.5,28.5 20,17.8 20,28.4 22.5,28.4 
							22.5,14 						"/>
						<polygon id="Fill-3_30_" points="20,28 12.5,38.7 5,28 2.5,28 2.5,42.3 5,42.3 5,31.8 12.5,42.5 20,31.8 20,42.3 22.5,42.3 
							22.5,28 						"/>
						<polygon id="Fill-4_30_" points="20,42.2 12.5,53.1 5,42.2 2.5,42.2 2.5,56.7 5,56.7 5,46 12.5,56.8 20,46 20,56.7 22.5,56.7 
							22.5,42.2 						"/>
						<polygon id="Fill-5_30_" points="20,56.3 12.5,67.2 5,56.3 2.5,56.3 2.5,70.8 5,70.8 5,60.2 12.5,71 20,60.2 20,70.8 
							22.5,70.8 22.5,56.3 						"/>
					</g>
				</g>
				<g id="Black-Icon-Only_31_" transform="translate(775.000000, 0.000000)">
					<g id="Page-1_31_">
						<polygon id="Fill-1_31_" points="20,0 12.5,10.8 5,0 2.5,0 2.5,14.4 5,14.4 5,3.8 12.5,14.5 20,3.9 20,14.4 22.5,14.4 22.5,0 
													"/>
						<polygon id="Fill-2_31_" points="20,14 12.5,24.8 5,14 2.5,14 2.5,28.4 5,28.4 5,17.8 12.5,28.5 20,17.8 20,28.4 22.5,28.4 
							22.5,14 						"/>
						<polygon id="Fill-3_31_" points="20,28 12.5,38.7 5,28 2.5,28 2.5,42.3 5,42.3 5,31.8 12.5,42.5 20,31.8 20,42.3 22.5,42.3 
							22.5,28 						"/>
						<polygon id="Fill-4_31_" points="20,42.2 12.5,53.1 5,42.2 2.5,42.2 2.5,56.7 5,56.7 5,46 12.5,56.8 20,46 20,56.7 22.5,56.7 
							22.5,42.2 						"/>
						<polygon id="Fill-5_31_" points="20,56.3 12.5,67.2 5,56.3 2.5,56.3 2.5,70.8 5,70.8 5,60.2 12.5,71 20,60.2 20,70.8 
							22.5,70.8 22.5,56.3 						"/>
					</g>
				</g>
				<g id="Black-Icon-Only_32_" transform="translate(800.000000, 0.000000)">
					<g id="Page-1_32_">
						<polygon id="Fill-1_32_" points="20,0 12.5,10.8 5,0 2.5,0 2.5,14.4 5,14.4 5,3.8 12.5,14.5 20,3.9 20,14.4 22.5,14.4 22.5,0 
													"/>
						<polygon id="Fill-2_32_" points="20,14 12.5,24.8 5,14 2.5,14 2.5,28.4 5,28.4 5,17.8 12.5,28.5 20,17.8 20,28.4 22.5,28.4 
							22.5,14 						"/>
						<polygon id="Fill-3_32_" points="20,28 12.5,38.7 5,28 2.5,28 2.5,42.3 5,42.3 5,31.8 12.5,42.5 20,31.8 20,42.3 22.5,42.3 
							22.5,28 						"/>
						<polygon id="Fill-4_32_" points="20,42.2 12.5,53.1 5,42.2 2.5,42.2 2.5,56.7 5,56.7 5,46 12.5,56.8 20,46 20,56.7 22.5,56.7 
							22.5,42.2 						"/>
						<polygon id="Fill-5_32_" points="20,56.3 12.5,67.2 5,56.3 2.5,56.3 2.5,70.8 5,70.8 5,60.2 12.5,71 20,60.2 20,70.8 
							22.5,70.8 22.5,56.3 						"/>
					</g>
				</g>
				<g id="Black-Icon-Only_33_" transform="translate(825.000000, 0.000000)">
					<g id="Page-1_33_">
						<polygon id="Fill-1_33_" points="20,0 12.5,10.8 5,0 2.5,0 2.5,14.4 5,14.4 5,3.8 12.5,14.5 20,3.9 20,14.4 22.5,14.4 22.5,0 
													"/>
						<polygon id="Fill-2_33_" points="20,14 12.5,24.8 5,14 2.5,14 2.5,28.4 5,28.4 5,17.8 12.5,28.5 20,17.8 20,28.4 22.5,28.4 
							22.5,14 						"/>
						<polygon id="Fill-3_33_" points="20,28 12.5,38.7 5,28 2.5,28 2.5,42.3 5,42.3 5,31.8 12.5,42.5 20,31.8 20,42.3 22.5,42.3 
							22.5,28 						"/>
						<polygon id="Fill-4_33_" points="20,42.2 12.5,53.1 5,42.2 2.5,42.2 2.5,56.7 5,56.7 5,46 12.5,56.8 20,46 20,56.7 22.5,56.7 
							22.5,42.2 						"/>
						<polygon id="Fill-5_33_" points="20,56.3 12.5,67.2 5,56.3 2.5,56.3 2.5,70.8 5,70.8 5,60.2 12.5,71 20,60.2 20,70.8 
							22.5,70.8 22.5,56.3 						"/>
					</g>
				</g>
				<g id="Black-Icon-Only_34_" transform="translate(850.000000, 0.000000)">
					<g id="Page-1_34_">
						<polygon id="Fill-1_34_" points="20,0 12.5,10.8 5,0 2.5,0 2.5,14.4 5,14.4 5,3.8 12.5,14.5 20,3.9 20,14.4 22.5,14.4 22.5,0 
													"/>
						<polygon id="Fill-2_34_" points="20,14 12.5,24.8 5,14 2.5,14 2.5,28.4 5,28.4 5,17.8 12.5,28.5 20,17.8 20,28.4 22.5,28.4 
							22.5,14 						"/>
						<polygon id="Fill-3_34_" points="20,28 12.5,38.7 5,28 2.5,28 2.5,42.3 5,42.3 5,31.8 12.5,42.5 20,31.8 20,42.3 22.5,42.3 
							22.5,28 						"/>
						<polygon id="Fill-4_34_" points="20,42.2 12.5,53.1 5,42.2 2.5,42.2 2.5,56.7 5,56.7 5,46 12.5,56.8 20,46 20,56.7 22.5,56.7 
							22.5,42.2 						"/>
						<polygon id="Fill-5_34_" points="20,56.3 12.5,67.2 5,56.3 2.5,56.3 2.5,70.8 5,70.8 5,60.2 12.5,71 20,60.2 20,70.8 
							22.5,70.8 22.5,56.3 						"/>
					</g>
				</g>
				<g id="Black-Icon-Only_35_" transform="translate(875.000000, 0.000000)">
					<g id="Page-1_35_">
						<polygon id="Fill-1_35_" points="20,0 12.5,10.8 5,0 2.5,0 2.5,14.4 5,14.4 5,3.8 12.5,14.5 20,3.9 20,14.4 22.5,14.4 22.5,0 
													"/>
						<polygon id="Fill-2_35_" points="20,14 12.5,24.8 5,14 2.5,14 2.5,28.4 5,28.4 5,17.8 12.5,28.5 20,17.8 20,28.4 22.5,28.4 
							22.5,14 						"/>
						<polygon id="Fill-3_35_" points="20,28 12.5,38.7 5,28 2.5,28 2.5,42.3 5,42.3 5,31.8 12.5,42.5 20,31.8 20,42.3 22.5,42.3 
							22.5,28 						"/>
						<polygon id="Fill-4_35_" points="20,42.2 12.5,53.1 5,42.2 2.5,42.2 2.5,56.7 5,56.7 5,46 12.5,56.8 20,46 20,56.7 22.5,56.7 
							22.5,42.2 						"/>
						<polygon id="Fill-5_35_" points="20,56.3 12.5,67.2 5,56.3 2.5,56.3 2.5,70.8 5,70.8 5,60.2 12.5,71 20,60.2 20,70.8 
							22.5,70.8 22.5,56.3 						"/>
					</g>
				</g>
				<g id="Black-Icon-Only_36_" transform="translate(900.000000, 0.000000)">
					<g id="Page-1_36_">
						<polygon id="Fill-1_36_" points="20,0 12.5,10.8 5,0 2.5,0 2.5,14.4 5,14.4 5,3.8 12.5,14.5 20,3.9 20,14.4 22.5,14.4 22.5,0 
													"/>
						<polygon id="Fill-2_36_" points="20,14 12.5,24.8 5,14 2.5,14 2.5,28.4 5,28.4 5,17.8 12.5,28.5 20,17.8 20,28.4 22.5,28.4 
							22.5,14 						"/>
						<polygon id="Fill-3_36_" points="20,28 12.5,38.7 5,28 2.5,28 2.5,42.3 5,42.3 5,31.8 12.5,42.5 20,31.8 20,42.3 22.5,42.3 
							22.5,28 						"/>
						<polygon id="Fill-4_36_" points="20,42.2 12.5,53.1 5,42.2 2.5,42.2 2.5,56.7 5,56.7 5,46 12.5,56.8 20,46 20,56.7 22.5,56.7 
							22.5,42.2 						"/>
						<polygon id="Fill-5_36_" points="20,56.3 12.5,67.2 5,56.3 2.5,56.3 2.5,70.8 5,70.8 5,60.2 12.5,71 20,60.2 20,70.8 
							22.5,70.8 22.5,56.3 						"/>
					</g>
				</g>
				<g id="Black-Icon-Only_37_" transform="translate(925.000000, 0.000000)">
					<g id="Page-1_37_">
						<polygon id="Fill-1_37_" points="20,0 12.5,10.8 5,0 2.5,0 2.5,14.4 5,14.4 5,3.8 12.5,14.5 20,3.9 20,14.4 22.5,14.4 22.5,0 
													"/>
						<polygon id="Fill-2_37_" points="20,14 12.5,24.8 5,14 2.5,14 2.5,28.4 5,28.4 5,17.8 12.5,28.5 20,17.8 20,28.4 22.5,28.4 
							22.5,14 						"/>
						<polygon id="Fill-3_37_" points="20,28 12.5,38.7 5,28 2.5,28 2.5,42.3 5,42.3 5,31.8 12.5,42.5 20,31.8 20,42.3 22.5,42.3 
							22.5,28 						"/>
						<polygon id="Fill-4_37_" points="20,42.2 12.5,53.1 5,42.2 2.5,42.2 2.5,56.7 5,56.7 5,46 12.5,56.8 20,46 20,56.7 22.5,56.7 
							22.5,42.2 						"/>
						<polygon id="Fill-5_37_" points="20,56.3 12.5,67.2 5,56.3 2.5,56.3 2.5,70.8 5,70.8 5,60.2 12.5,71 20,60.2 20,70.8 
							22.5,70.8 22.5,56.3 						"/>
					</g>
				</g>
				<g id="Black-Icon-Only_38_" transform="translate(950.000000, 0.000000)">
					<g id="Page-1_38_">
						<polygon id="Fill-1_38_" points="20,0 12.5,10.8 5,0 2.5,0 2.5,14.4 5,14.4 5,3.8 12.5,14.5 20,3.9 20,14.4 22.5,14.4 22.5,0 
													"/>
						<polygon id="Fill-2_38_" points="20,14 12.5,24.8 5,14 2.5,14 2.5,28.4 5,28.4 5,17.8 12.5,28.5 20,17.8 20,28.4 22.5,28.4 
							22.5,14 						"/>
						<polygon id="Fill-3_38_" points="20,28 12.5,38.7 5,28 2.5,28 2.5,42.3 5,42.3 5,31.8 12.5,42.5 20,31.8 20,42.3 22.5,42.3 
							22.5,28 						"/>
						<polygon id="Fill-4_38_" points="20,42.2 12.5,53.1 5,42.2 2.5,42.2 2.5,56.7 5,56.7 5,46 12.5,56.8 20,46 20,56.7 22.5,56.7 
							22.5,42.2 						"/>
						<polygon id="Fill-5_38_" points="20,56.3 12.5,67.2 5,56.3 2.5,56.3 2.5,70.8 5,70.8 5,60.2 12.5,71 20,60.2 20,70.8 
							22.5,70.8 22.5,56.3 						"/>
					</g>
				</g>
				<g id="Black-Icon-Only_39_" transform="translate(975.000000, 0.000000)">
					<g id="Page-1_39_">
						<polygon id="Fill-1_39_" points="20,0 12.5,10.8 5,0 2.5,0 2.5,14.4 5,14.4 5,3.8 12.5,14.5 20,3.9 20,14.4 22.5,14.4 22.5,0 
													"/>
						<polygon id="Fill-2_39_" points="20,14 12.5,24.8 5,14 2.5,14 2.5,28.4 5,28.4 5,17.8 12.5,28.5 20,17.8 20,28.4 22.5,28.4 
							22.5,14 						"/>
						<polygon id="Fill-3_39_" points="20,28 12.5,38.7 5,28 2.5,28 2.5,42.3 5,42.3 5,31.8 12.5,42.5 20,31.8 20,42.3 22.5,42.3 
							22.5,28 						"/>
						<polygon id="Fill-4_39_" points="20,42.2 12.5,53.1 5,42.2 2.5,42.2 2.5,56.7 5,56.7 5,46 12.5,56.8 20,46 20,56.7 22.5,56.7 
							22.5,42.2 						"/>
						<polygon id="Fill-5_39_" points="20,56.3 12.5,67.2 5,56.3 2.5,56.3 2.5,70.8 5,70.8 5,60.2 12.5,71 20,60.2 20,70.8 
							22.5,70.8 22.5,56.3 						"/>
					</g>
				</g>
				<g id="Black-Icon-Only_40_" transform="translate(1000.000000, 0.000000)">
					<g id="Page-1_40_">
						<polygon id="Fill-1_40_" points="20,0 12.5,10.8 5,0 2.5,0 2.5,14.4 5,14.4 5,3.8 12.5,14.5 20,3.9 20,14.4 22.5,14.4 22.5,0 
													"/>
						<polygon id="Fill-2_40_" points="20,14 12.5,24.8 5,14 2.5,14 2.5,28.4 5,28.4 5,17.8 12.5,28.5 20,17.8 20,28.4 22.5,28.4 
							22.5,14 						"/>
						<polygon id="Fill-3_40_" points="20,28 12.5,38.7 5,28 2.5,28 2.5,42.3 5,42.3 5,31.8 12.5,42.5 20,31.8 20,42.3 22.5,42.3 
							22.5,28 						"/>
						<polygon id="Fill-4_40_" points="20,42.2 12.5,53.1 5,42.2 2.5,42.2 2.5,56.7 5,56.7 5,46 12.5,56.8 20,46 20,56.7 22.5,56.7 
							22.5,42.2 						"/>
						<polygon id="Fill-5_40_" points="20,56.3 12.5,67.2 5,56.3 2.5,56.3 2.5,70.8 5,70.8 5,60.2 12.5,71 20,60.2 20,70.8 
							22.5,70.8 22.5,56.3 						"/>
					</g>
				</g>
				<g id="Black-Icon-Only_41_" transform="translate(1025.000000, 0.000000)">
					<g id="Page-1_41_">
						<polygon id="Fill-1_41_" points="20,0 12.5,10.8 5,0 2.5,0 2.5,14.4 5,14.4 5,3.8 12.5,14.5 20,3.9 20,14.4 22.5,14.4 22.5,0 
													"/>
						<polygon id="Fill-2_41_" points="20,14 12.5,24.8 5,14 2.5,14 2.5,28.4 5,28.4 5,17.8 12.5,28.5 20,17.8 20,28.4 22.5,28.4 
							22.5,14 						"/>
						<polygon id="Fill-3_41_" points="20,28 12.5,38.7 5,28 2.5,28 2.5,42.3 5,42.3 5,31.8 12.5,42.5 20,31.8 20,42.3 22.5,42.3 
							22.5,28 						"/>
						<polygon id="Fill-4_41_" points="20,42.2 12.5,53.1 5,42.2 2.5,42.2 2.5,56.7 5,56.7 5,46 12.5,56.8 20,46 20,56.7 22.5,56.7 
							22.5,42.2 						"/>
						<polygon id="Fill-5_41_" points="20,56.3 12.5,67.2 5,56.3 2.5,56.3 2.5,70.8 5,70.8 5,60.2 12.5,71 20,60.2 20,70.8 
							22.5,70.8 22.5,56.3 						"/>
					</g>
				</g>
				<g id="Black-Icon-Only_42_" transform="translate(1050.000000, 0.000000)">
					<g id="Page-1_42_">
						<polygon id="Fill-1_42_" points="20,0 12.5,10.8 5,0 2.5,0 2.5,14.4 5,14.4 5,3.8 12.5,14.5 20,3.9 20,14.4 22.5,14.4 22.5,0 
													"/>
						<polygon id="Fill-2_42_" points="20,14 12.5,24.8 5,14 2.5,14 2.5,28.4 5,28.4 5,17.8 12.5,28.5 20,17.8 20,28.4 22.5,28.4 
							22.5,14 						"/>
						<polygon id="Fill-3_42_" points="20,28 12.5,38.7 5,28 2.5,28 2.5,42.3 5,42.3 5,31.8 12.5,42.5 20,31.8 20,42.3 22.5,42.3 
							22.5,28 						"/>
						<polygon id="Fill-4_42_" points="20,42.2 12.5,53.1 5,42.2 2.5,42.2 2.5,56.7 5,56.7 5,46 12.5,56.8 20,46 20,56.7 22.5,56.7 
							22.5,42.2 						"/>
						<polygon id="Fill-5_42_" points="20,56.3 12.5,67.2 5,56.3 2.5,56.3 2.5,70.8 5,70.8 5,60.2 12.5,71 20,60.2 20,70.8 
							22.5,70.8 22.5,56.3 						"/>
					</g>
				</g>
				<g id="Black-Icon-Only_43_" transform="translate(1075.000000, 0.000000)">
					<g id="Page-1_43_">
						<polygon id="Fill-1_43_" points="20,0 12.5,10.8 5,0 2.5,0 2.5,14.4 5,14.4 5,3.8 12.5,14.5 20,3.9 20,14.4 22.5,14.4 22.5,0 
													"/>
						<polygon id="Fill-2_43_" points="20,14 12.5,24.8 5,14 2.5,14 2.5,28.4 5,28.4 5,17.8 12.5,28.5 20,17.8 20,28.4 22.5,28.4 
							22.5,14 						"/>
						<polygon id="Fill-3_43_" points="20,28 12.5,38.7 5,28 2.5,28 2.5,42.3 5,42.3 5,31.8 12.5,42.5 20,31.8 20,42.3 22.5,42.3 
							22.5,28 						"/>
						<polygon id="Fill-4_43_" points="20,42.2 12.5,53.1 5,42.2 2.5,42.2 2.5,56.7 5,56.7 5,46 12.5,56.8 20,46 20,56.7 22.5,56.7 
							22.5,42.2 						"/>
						<polygon id="Fill-5_43_" points="20,56.3 12.5,67.2 5,56.3 2.5,56.3 2.5,70.8 5,70.8 5,60.2 12.5,71 20,60.2 20,70.8 
							22.5,70.8 22.5,56.3 						"/>
					</g>
				</g>
				<g id="Black-Icon-Only_44_" transform="translate(1100.000000, 0.000000)">
					<g id="Page-1_44_">
						<polygon id="Fill-1_44_" points="20,0 12.5,10.8 5,0 2.5,0 2.5,14.4 5,14.4 5,3.8 12.5,14.5 20,3.9 20,14.4 22.5,14.4 22.5,0 
													"/>
						<polygon id="Fill-2_44_" points="20,14 12.5,24.8 5,14 2.5,14 2.5,28.4 5,28.4 5,17.8 12.5,28.5 20,17.8 20,28.4 22.5,28.4 
							22.5,14 						"/>
						<polygon id="Fill-3_44_" points="20,28 12.5,38.7 5,28 2.5,28 2.5,42.3 5,42.3 5,31.8 12.5,42.5 20,31.8 20,42.3 22.5,42.3 
							22.5,28 						"/>
						<polygon id="Fill-4_44_" points="20,42.2 12.5,53.1 5,42.2 2.5,42.2 2.5,56.7 5,56.7 5,46 12.5,56.8 20,46 20,56.7 22.5,56.7 
							22.5,42.2 						"/>
						<polygon id="Fill-5_44_" points="20,56.3 12.5,67.2 5,56.3 2.5,56.3 2.5,70.8 5,70.8 5,60.2 12.5,71 20,60.2 20,70.8 
							22.5,70.8 22.5,56.3 						"/>
					</g>
				</g>
				<g id="Black-Icon-Only_45_" transform="translate(1125.000000, 0.000000)">
					<g id="Page-1_45_">
						<polygon id="Fill-1_45_" points="20,0 12.5,10.8 5,0 2.5,0 2.5,14.4 5,14.4 5,3.8 12.5,14.5 20,3.9 20,14.4 22.5,14.4 22.5,0 
													"/>
						<polygon id="Fill-2_45_" points="20,14 12.5,24.8 5,14 2.5,14 2.5,28.4 5,28.4 5,17.8 12.5,28.5 20,17.8 20,28.4 22.5,28.4 
							22.5,14 						"/>
						<polygon id="Fill-3_45_" points="20,28 12.5,38.7 5,28 2.5,28 2.5,42.3 5,42.3 5,31.8 12.5,42.5 20,31.8 20,42.3 22.5,42.3 
							22.5,28 						"/>
						<polygon id="Fill-4_45_" points="20,42.2 12.5,53.1 5,42.2 2.5,42.2 2.5,56.7 5,56.7 5,46 12.5,56.8 20,46 20,56.7 22.5,56.7 
							22.5,42.2 						"/>
						<polygon id="Fill-5_45_" points="20,56.3 12.5,67.2 5,56.3 2.5,56.3 2.5,70.8 5,70.8 5,60.2 12.5,71 20,60.2 20,70.8 
							22.5,70.8 22.5,56.3 						"/>
					</g>
				</g>
				<g id="Black-Icon-Only_46_" transform="translate(1150.000000, 0.000000)">
					<g id="Page-1_46_">
						<polygon id="Fill-1_46_" points="20,0 12.5,10.8 5,0 2.5,0 2.5,14.4 5,14.4 5,3.8 12.5,14.5 20,3.9 20,14.4 22.5,14.4 22.5,0 
													"/>
						<polygon id="Fill-2_46_" points="20,14 12.5,24.8 5,14 2.5,14 2.5,28.4 5,28.4 5,17.8 12.5,28.5 20,17.8 20,28.4 22.5,28.4 
							22.5,14 						"/>
						<polygon id="Fill-3_46_" points="20,28 12.5,38.7 5,28 2.5,28 2.5,42.3 5,42.3 5,31.8 12.5,42.5 20,31.8 20,42.3 22.5,42.3 
							22.5,28 						"/>
						<polygon id="Fill-4_46_" points="20,42.2 12.5,53.1 5,42.2 2.5,42.2 2.5,56.7 5,56.7 5,46 12.5,56.8 20,46 20,56.7 22.5,56.7 
							22.5,42.2 						"/>
						<polygon id="Fill-5_46_" points="20,56.3 12.5,67.2 5,56.3 2.5,56.3 2.5,70.8 5,70.8 5,60.2 12.5,71 20,60.2 20,70.8 
							22.5,70.8 22.5,56.3 						"/>
					</g>
				</g>
				<g id="Black-Icon-Only_47_" transform="translate(1175.000000, 0.000000)">
					<g id="Page-1_47_">
						<polygon id="Fill-1_47_" points="20,0 12.5,10.8 5,0 2.5,0 2.5,14.4 5,14.4 5,3.8 12.5,14.5 20,3.9 20,14.4 22.5,14.4 22.5,0 
													"/>
						<polygon id="Fill-2_47_" points="20,14 12.5,24.8 5,14 2.5,14 2.5,28.4 5,28.4 5,17.8 12.5,28.5 20,17.8 20,28.4 22.5,28.4 
							22.5,14 						"/>
						<polygon id="Fill-3_47_" points="20,28 12.5,38.7 5,28 2.5,28 2.5,42.3 5,42.3 5,31.8 12.5,42.5 20,31.8 20,42.3 22.5,42.3 
							22.5,28 						"/>
						<polygon id="Fill-4_47_" points="20,42.2 12.5,53.1 5,42.2 2.5,42.2 2.5,56.7 5,56.7 5,46 12.5,56.8 20,46 20,56.7 22.5,56.7 
							22.5,42.2 						"/>
						<polygon id="Fill-5_47_" points="20,56.3 12.5,67.2 5,56.3 2.5,56.3 2.5,70.8 5,70.8 5,60.2 12.5,71 20,60.2 20,70.8 
							22.5,70.8 22.5,56.3 						"/>
					</g>
				</g>
				<g id="Black-Icon-Only_48_" transform="translate(1200.000000, 0.000000)">
					<g id="Page-1_48_">
						<polygon id="Fill-1_48_" points="20,0 12.5,10.8 5,0 2.5,0 2.5,14.4 5,14.4 5,3.8 12.5,14.5 20,3.9 20,14.4 22.5,14.4 22.5,0 
													"/>
						<polygon id="Fill-2_48_" points="20,14 12.5,24.8 5,14 2.5,14 2.5,28.4 5,28.4 5,17.8 12.5,28.5 20,17.8 20,28.4 22.5,28.4 
							22.5,14 						"/>
						<polygon id="Fill-3_48_" points="20,28 12.5,38.7 5,28 2.5,28 2.5,42.3 5,42.3 5,31.8 12.5,42.5 20,31.8 20,42.3 22.5,42.3 
							22.5,28 						"/>
						<polygon id="Fill-4_48_" points="20,42.2 12.5,53.1 5,42.2 2.5,42.2 2.5,56.7 5,56.7 5,46 12.5,56.8 20,46 20,56.7 22.5,56.7 
							22.5,42.2 						"/>
						<polygon id="Fill-5_48_" points="20,56.3 12.5,67.2 5,56.3 2.5,56.3 2.5,70.8 5,70.8 5,60.2 12.5,71 20,60.2 20,70.8 
							22.5,70.8 22.5,56.3 						"/>
					</g>
				</g>
				<g id="Black-Icon-Only_49_" transform="translate(1225.000000, 0.000000)">
					<g id="Page-1_49_">
						<polygon id="Fill-1_49_" points="20,0 12.5,10.8 5,0 2.5,0 2.5,14.4 5,14.4 5,3.8 12.5,14.5 20,3.9 20,14.4 22.5,14.4 22.5,0 
													"/>
						<polygon id="Fill-2_49_" points="20,14 12.5,24.8 5,14 2.5,14 2.5,28.4 5,28.4 5,17.8 12.5,28.5 20,17.8 20,28.4 22.5,28.4 
							22.5,14 						"/>
						<polygon id="Fill-3_49_" points="20,28 12.5,38.7 5,28 2.5,28 2.5,42.3 5,42.3 5,31.8 12.5,42.5 20,31.8 20,42.3 22.5,42.3 
							22.5,28 						"/>
						<polygon id="Fill-4_49_" points="20,42.2 12.5,53.1 5,42.2 2.5,42.2 2.5,56.7 5,56.7 5,46 12.5,56.8 20,46 20,56.7 22.5,56.7 
							22.5,42.2 						"/>
						<polygon id="Fill-5_49_" points="20,56.3 12.5,67.2 5,56.3 2.5,56.3 2.5,70.8 5,70.8 5,60.2 12.5,71 20,60.2 20,70.8 
							22.5,70.8 22.5,56.3 						"/>
					</g>
				</g>
				<g id="Black-Icon-Only_50_" transform="translate(1250.000000, 0.000000)">
					<g id="Page-1_50_">
						<polygon id="Fill-1_50_" points="20,0 12.5,10.8 5,0 2.5,0 2.5,14.4 5,14.4 5,3.8 12.5,14.5 20,3.9 20,14.4 22.5,14.4 22.5,0 
													"/>
						<polygon id="Fill-2_50_" points="20,14 12.5,24.8 5,14 2.5,14 2.5,28.4 5,28.4 5,17.8 12.5,28.5 20,17.8 20,28.4 22.5,28.4 
							22.5,14 						"/>
						<polygon id="Fill-3_50_" points="20,28 12.5,38.7 5,28 2.5,28 2.5,42.3 5,42.3 5,31.8 12.5,42.5 20,31.8 20,42.3 22.5,42.3 
							22.5,28 						"/>
						<polygon id="Fill-4_50_" points="20,42.2 12.5,53.1 5,42.2 2.5,42.2 2.5,56.7 5,56.7 5,46 12.5,56.8 20,46 20,56.7 22.5,56.7 
							22.5,42.2 						"/>
						<polygon id="Fill-5_50_" points="20,56.3 12.5,67.2 5,56.3 2.5,56.3 2.5,70.8 5,70.8 5,60.2 12.5,71 20,60.2 20,70.8 
							22.5,70.8 22.5,56.3 						"/>
					</g>
				</g>
				<g id="Black-Icon-Only_51_" transform="translate(1275.000000, 0.000000)">
					<g id="Page-1_51_">
						<polygon id="Fill-1_51_" points="20,0 12.5,10.8 5,0 2.5,0 2.5,14.4 5,14.4 5,3.8 12.5,14.5 20,3.9 20,14.4 22.5,14.4 22.5,0 
													"/>
						<polygon id="Fill-2_51_" points="20,14 12.5,24.8 5,14 2.5,14 2.5,28.4 5,28.4 5,17.8 12.5,28.5 20,17.8 20,28.4 22.5,28.4 
							22.5,14 						"/>
						<polygon id="Fill-3_51_" points="20,28 12.5,38.7 5,28 2.5,28 2.5,42.3 5,42.3 5,31.8 12.5,42.5 20,31.8 20,42.3 22.5,42.3 
							22.5,28 						"/>
						<polygon id="Fill-4_51_" points="20,42.2 12.5,53.1 5,42.2 2.5,42.2 2.5,56.7 5,56.7 5,46 12.5,56.8 20,46 20,56.7 22.5,56.7 
							22.5,42.2 						"/>
						<polygon id="Fill-5_51_" points="20,56.3 12.5,67.2 5,56.3 2.5,56.3 2.5,70.8 5,70.8 5,60.2 12.5,71 20,60.2 20,70.8 
							22.5,70.8 22.5,56.3 						"/>
					</g>
				</g>
				<g id="Black-Icon-Only_52_" transform="translate(1300.000000, 0.000000)">
					<g id="Page-1_52_">
						<polygon id="Fill-1_52_" points="20,0 12.5,10.8 5,0 2.5,0 2.5,14.4 5,14.4 5,3.8 12.5,14.5 20,3.9 20,14.4 22.5,14.4 22.5,0 
													"/>
						<polygon id="Fill-2_52_" points="20,14 12.5,24.8 5,14 2.5,14 2.5,28.4 5,28.4 5,17.8 12.5,28.5 20,17.8 20,28.4 22.5,28.4 
							22.5,14 						"/>
						<polygon id="Fill-3_52_" points="20,28 12.5,38.7 5,28 2.5,28 2.5,42.3 5,42.3 5,31.8 12.5,42.5 20,31.8 20,42.3 22.5,42.3 
							22.5,28 						"/>
						<polygon id="Fill-4_52_" points="20,42.2 12.5,53.1 5,42.2 2.5,42.2 2.5,56.7 5,56.7 5,46 12.5,56.8 20,46 20,56.7 22.5,56.7 
							22.5,42.2 						"/>
						<polygon id="Fill-5_52_" points="20,56.3 12.5,67.2 5,56.3 2.5,56.3 2.5,70.8 5,70.8 5,60.2 12.5,71 20,60.2 20,70.8 
							22.5,70.8 22.5,56.3 						"/>
					</g>
				</g>
				<g id="Black-Icon-Only_53_" transform="translate(1325.000000, 0.000000)">
					<g id="Page-1_53_">
						<polygon id="Fill-1_53_" points="20,0 12.5,10.8 5,0 2.5,0 2.5,14.4 5,14.4 5,3.8 12.5,14.5 20,3.9 20,14.4 22.5,14.4 22.5,0 
													"/>
						<polygon id="Fill-2_53_" points="20,14 12.5,24.8 5,14 2.5,14 2.5,28.4 5,28.4 5,17.8 12.5,28.5 20,17.8 20,28.4 22.5,28.4 
							22.5,14 						"/>
						<polygon id="Fill-3_53_" points="20,28 12.5,38.7 5,28 2.5,28 2.5,42.3 5,42.3 5,31.8 12.5,42.5 20,31.8 20,42.3 22.5,42.3 
							22.5,28 						"/>
						<polygon id="Fill-4_53_" points="20,42.2 12.5,53.1 5,42.2 2.5,42.2 2.5,56.7 5,56.7 5,46 12.5,56.8 20,46 20,56.7 22.5,56.7 
							22.5,42.2 						"/>
						<polygon id="Fill-5_53_" points="20,56.3 12.5,67.2 5,56.3 2.5,56.3 2.5,70.8 5,70.8 5,60.2 12.5,71 20,60.2 20,70.8 
							22.5,70.8 22.5,56.3 						"/>
					</g>
				</g>
				<g id="Black-Icon-Only_54_" transform="translate(1350.000000, 0.000000)">
					<g id="Page-1_54_">
						<polygon id="Fill-1_54_" points="20,0 12.5,10.8 5,0 2.5,0 2.5,14.4 5,14.4 5,3.8 12.5,14.5 20,3.9 20,14.4 22.5,14.4 22.5,0 
													"/>
						<polygon id="Fill-2_54_" points="20,14 12.5,24.8 5,14 2.5,14 2.5,28.4 5,28.4 5,17.8 12.5,28.5 20,17.8 20,28.4 22.5,28.4 
							22.5,14 						"/>
						<polygon id="Fill-3_54_" points="20,28 12.5,38.7 5,28 2.5,28 2.5,42.3 5,42.3 5,31.8 12.5,42.5 20,31.8 20,42.3 22.5,42.3 
							22.5,28 						"/>
						<polygon id="Fill-4_54_" points="20,42.2 12.5,53.1 5,42.2 2.5,42.2 2.5,56.7 5,56.7 5,46 12.5,56.8 20,46 20,56.7 22.5,56.7 
							22.5,42.2 						"/>
						<polygon id="Fill-5_54_" points="20,56.3 12.5,67.2 5,56.3 2.5,56.3 2.5,70.8 5,70.8 5,60.2 12.5,71 20,60.2 20,70.8 
							22.5,70.8 22.5,56.3 						"/>
					</g>
				</g>
				<g id="Black-Icon-Only_55_" transform="translate(1375.000000, 0.000000)">
					<g id="Page-1_55_">
						<polygon id="Fill-1_55_" points="20,0 12.5,10.8 5,0 2.5,0 2.5,14.4 5,14.4 5,3.8 12.5,14.5 20,3.9 20,14.4 22.5,14.4 22.5,0 
													"/>
						<polygon id="Fill-2_55_" points="20,14 12.5,24.8 5,14 2.5,14 2.5,28.4 5,28.4 5,17.8 12.5,28.5 20,17.8 20,28.4 22.5,28.4 
							22.5,14 						"/>
						<polygon id="Fill-3_55_" points="20,28 12.5,38.7 5,28 2.5,28 2.5,42.3 5,42.3 5,31.8 12.5,42.5 20,31.8 20,42.3 22.5,42.3 
							22.5,28 						"/>
						<polygon id="Fill-4_55_" points="20,42.2 12.5,53.1 5,42.2 2.5,42.2 2.5,56.7 5,56.7 5,46 12.5,56.8 20,46 20,56.7 22.5,56.7 
							22.5,42.2 						"/>
						<polygon id="Fill-5_55_" points="20,56.3 12.5,67.2 5,56.3 2.5,56.3 2.5,70.8 5,70.8 5,60.2 12.5,71 20,60.2 20,70.8 
							22.5,70.8 22.5,56.3 						"/>
					</g>
				</g>
				<g id="Black-Icon-Only_56_" transform="translate(1400.000000, 0.000000)">
					<g id="Page-1_56_">
						<polygon id="Fill-1_56_" points="20,0 12.5,10.8 5,0 2.5,0 2.5,14.4 5,14.4 5,3.8 12.5,14.5 20,3.9 20,14.4 22.5,14.4 22.5,0 
													"/>
						<polygon id="Fill-2_56_" points="20,14 12.5,24.8 5,14 2.5,14 2.5,28.4 5,28.4 5,17.8 12.5,28.5 20,17.8 20,28.4 22.5,28.4 
							22.5,14 						"/>
						<polygon id="Fill-3_56_" points="20,28 12.5,38.7 5,28 2.5,28 2.5,42.3 5,42.3 5,31.8 12.5,42.5 20,31.8 20,42.3 22.5,42.3 
							22.5,28 						"/>
						<polygon id="Fill-4_56_" points="20,42.2 12.5,53.1 5,42.2 2.5,42.2 2.5,56.7 5,56.7 5,46 12.5,56.8 20,46 20,56.7 22.5,56.7 
							22.5,42.2 						"/>
						<polygon id="Fill-5_56_" points="20,56.3 12.5,67.2 5,56.3 2.5,56.3 2.5,70.8 5,70.8 5,60.2 12.5,71 20,60.2 20,70.8 
							22.5,70.8 22.5,56.3 						"/>
					</g>
				</g>
				<g id="Black-Icon-Only_57_" transform="translate(1425.000000, 0.000000)">
					<g id="Page-1_57_">
						<polygon id="Fill-1_57_" points="20,0 12.5,10.8 5,0 2.5,0 2.5,14.4 5,14.4 5,3.8 12.5,14.5 20,3.9 20,14.4 22.5,14.4 22.5,0 
													"/>
						<polygon id="Fill-2_57_" points="20,14 12.5,24.8 5,14 2.5,14 2.5,28.4 5,28.4 5,17.8 12.5,28.5 20,17.8 20,28.4 22.5,28.4 
							22.5,14 						"/>
						<polygon id="Fill-3_57_" points="20,28 12.5,38.7 5,28 2.5,28 2.5,42.3 5,42.3 5,31.8 12.5,42.5 20,31.8 20,42.3 22.5,42.3 
							22.5,28 						"/>
						<polygon id="Fill-4_57_" points="20,42.2 12.5,53.1 5,42.2 2.5,42.2 2.5,56.7 5,56.7 5,46 12.5,56.8 20,46 20,56.7 22.5,56.7 
							22.5,42.2 						"/>
						<polygon id="Fill-5_57_" points="20,56.3 12.5,67.2 5,56.3 2.5,56.3 2.5,70.8 5,70.8 5,60.2 12.5,71 20,60.2 20,70.8 
							22.5,70.8 22.5,56.3 						"/>
					</g>
				</g>
				<g id="Black-Icon-Only_58_" transform="translate(1450.000000, 0.000000)">
					<g id="Page-1_58_">
						<polygon id="Fill-1_58_" points="20,0 12.5,10.8 5,0 2.5,0 2.5,14.4 5,14.4 5,3.8 12.5,14.5 20,3.9 20,14.4 22.5,14.4 22.5,0 
													"/>
						<polygon id="Fill-2_58_" points="20,14 12.5,24.8 5,14 2.5,14 2.5,28.4 5,28.4 5,17.8 12.5,28.5 20,17.8 20,28.4 22.5,28.4 
							22.5,14 						"/>
						<polygon id="Fill-3_58_" points="20,28 12.5,38.7 5,28 2.5,28 2.5,42.3 5,42.3 5,31.8 12.5,42.5 20,31.8 20,42.3 22.5,42.3 
							22.5,28 						"/>
						<polygon id="Fill-4_58_" points="20,42.2 12.5,53.1 5,42.2 2.5,42.2 2.5,56.7 5,56.7 5,46 12.5,56.8 20,46 20,56.7 22.5,56.7 
							22.5,42.2 						"/>
						<polygon id="Fill-5_58_" points="20,56.3 12.5,67.2 5,56.3 2.5,56.3 2.5,70.8 5,70.8 5,60.2 12.5,71 20,60.2 20,70.8 
							22.5,70.8 22.5,56.3 						"/>
					</g>
				</g>
				<g id="Black-Icon-Only_59_" transform="translate(1475.000000, 0.000000)">
					<g id="Page-1_59_">
						<polygon id="Fill-1_59_" points="20,0 12.5,10.8 5,0 2.5,0 2.5,14.4 5,14.4 5,3.8 12.5,14.5 20,3.9 20,14.4 22.5,14.4 22.5,0 
													"/>
						<polygon id="Fill-2_59_" points="20,14 12.5,24.8 5,14 2.5,14 2.5,28.4 5,28.4 5,17.8 12.5,28.5 20,17.8 20,28.4 22.5,28.4 
							22.5,14 						"/>
						<polygon id="Fill-3_59_" points="20,28 12.5,38.7 5,28 2.5,28 2.5,42.3 5,42.3 5,31.8 12.5,42.5 20,31.8 20,42.3 22.5,42.3 
							22.5,28 						"/>
						<polygon id="Fill-4_59_" points="20,42.2 12.5,53.1 5,42.2 2.5,42.2 2.5,56.7 5,56.7 5,46 12.5,56.8 20,46 20,56.7 22.5,56.7 
							22.5,42.2 						"/>
						<polygon id="Fill-5_59_" points="20,56.3 12.5,67.2 5,56.3 2.5,56.3 2.5,70.8 5,70.8 5,60.2 12.5,71 20,60.2 20,70.8 
							22.5,70.8 22.5,56.3 						"/>
					</g>
				</g>
				<g id="Black-Icon-Only_60_" transform="translate(1500.000000, 0.000000)">
					<g id="Page-1_60_">
						<polygon id="Fill-1_60_" points="20,0 12.5,10.8 5,0 2.5,0 2.5,14.4 5,14.4 5,3.8 12.5,14.5 20,3.9 20,14.4 22.5,14.4 22.5,0 
													"/>
						<polygon id="Fill-2_60_" points="20,14 12.5,24.8 5,14 2.5,14 2.5,28.4 5,28.4 5,17.8 12.5,28.5 20,17.8 20,28.4 22.5,28.4 
							22.5,14 						"/>
						<polygon id="Fill-3_60_" points="20,28 12.5,38.7 5,28 2.5,28 2.5,42.3 5,42.3 5,31.8 12.5,42.5 20,31.8 20,42.3 22.5,42.3 
							22.5,28 						"/>
						<polygon id="Fill-4_60_" points="20,42.2 12.5,53.1 5,42.2 2.5,42.2 2.5,56.7 5,56.7 5,46 12.5,56.8 20,46 20,56.7 22.5,56.7 
							22.5,42.2 						"/>
						<polygon id="Fill-5_60_" points="20,56.3 12.5,67.2 5,56.3 2.5,56.3 2.5,70.8 5,70.8 5,60.2 12.5,71 20,60.2 20,70.8 
							22.5,70.8 22.5,56.3 						"/>
					</g>
				</g>
				<g id="Black-Icon-Only_61_" transform="translate(1525.000000, 0.000000)">
					<g id="Page-1_61_">
						<polygon id="Fill-1_61_" points="20,0 12.5,10.8 5,0 2.5,0 2.5,14.4 5,14.4 5,3.8 12.5,14.5 20,3.9 20,14.4 22.5,14.4 22.5,0 
													"/>
						<polygon id="Fill-2_61_" points="20,14 12.5,24.8 5,14 2.5,14 2.5,28.4 5,28.4 5,17.8 12.5,28.5 20,17.8 20,28.4 22.5,28.4 
							22.5,14 						"/>
						<polygon id="Fill-3_61_" points="20,28 12.5,38.7 5,28 2.5,28 2.5,42.3 5,42.3 5,31.8 12.5,42.5 20,31.8 20,42.3 22.5,42.3 
							22.5,28 						"/>
						<polygon id="Fill-4_61_" points="20,42.2 12.5,53.1 5,42.2 2.5,42.2 2.5,56.7 5,56.7 5,46 12.5,56.8 20,46 20,56.7 22.5,56.7 
							22.5,42.2 						"/>
						<polygon id="Fill-5_61_" points="20,56.3 12.5,67.2 5,56.3 2.5,56.3 2.5,70.8 5,70.8 5,60.2 12.5,71 20,60.2 20,70.8 
							22.5,70.8 22.5,56.3 						"/>
					</g>
				</g>
				<g id="Black-Icon-Only_62_" transform="translate(1550.000000, 0.000000)">
					<g id="Page-1_62_">
						<polygon id="Fill-1_62_" points="20,0 12.5,10.8 5,0 2.5,0 2.5,14.4 5,14.4 5,3.8 12.5,14.5 20,3.9 20,14.4 22.5,14.4 22.5,0 
													"/>
						<polygon id="Fill-2_62_" points="20,14 12.5,24.8 5,14 2.5,14 2.5,28.4 5,28.4 5,17.8 12.5,28.5 20,17.8 20,28.4 22.5,28.4 
							22.5,14 						"/>
						<polygon id="Fill-3_62_" points="20,28 12.5,38.7 5,28 2.5,28 2.5,42.3 5,42.3 5,31.8 12.5,42.5 20,31.8 20,42.3 22.5,42.3 
							22.5,28 						"/>
						<polygon id="Fill-4_62_" points="20,42.2 12.5,53.1 5,42.2 2.5,42.2 2.5,56.7 5,56.7 5,46 12.5,56.8 20,46 20,56.7 22.5,56.7 
							22.5,42.2 						"/>
						<polygon id="Fill-5_62_" points="20,56.3 12.5,67.2 5,56.3 2.5,56.3 2.5,70.8 5,70.8 5,60.2 12.5,71 20,60.2 20,70.8 
							22.5,70.8 22.5,56.3 						"/>
					</g>
				</g>
				<g id="Black-Icon-Only_63_" transform="translate(1575.000000, 0.000000)">
					<g id="Page-1_63_">
						<polygon id="Fill-1_63_" points="20,0 12.5,10.8 5,0 2.5,0 2.5,14.4 5,14.4 5,3.8 12.5,14.5 20,3.9 20,14.4 22.5,14.4 22.5,0 
													"/>
						<polygon id="Fill-2_63_" points="20,14 12.5,24.8 5,14 2.5,14 2.5,28.4 5,28.4 5,17.8 12.5,28.5 20,17.8 20,28.4 22.5,28.4 
							22.5,14 						"/>
						<polygon id="Fill-3_63_" points="20,28 12.5,38.7 5,28 2.5,28 2.5,42.3 5,42.3 5,31.8 12.5,42.5 20,31.8 20,42.3 22.5,42.3 
							22.5,28 						"/>
						<polygon id="Fill-4_63_" points="20,42.2 12.5,53.1 5,42.2 2.5,42.2 2.5,56.7 5,56.7 5,46 12.5,56.8 20,46 20,56.7 22.5,56.7 
							22.5,42.2 						"/>
						<polygon id="Fill-5_63_" points="20,56.3 12.5,67.2 5,56.3 2.5,56.3 2.5,70.8 5,70.8 5,60.2 12.5,71 20,60.2 20,70.8 
							22.5,70.8 22.5,56.3 						"/>
					</g>
				</g>
				<g id="Black-Icon-Only_64_" transform="translate(1600.000000, 0.000000)">
					<g id="Page-1_64_">
						<polygon id="Fill-1_64_" points="20,0 12.5,10.8 5,0 2.5,0 2.5,14.4 5,14.4 5,3.8 12.5,14.5 20,3.9 20,14.4 22.5,14.4 22.5,0 
													"/>
						<polygon id="Fill-2_64_" points="20,14 12.5,24.8 5,14 2.5,14 2.5,28.4 5,28.4 5,17.8 12.5,28.5 20,17.8 20,28.4 22.5,28.4 
							22.5,14 						"/>
						<polygon id="Fill-3_64_" points="20,28 12.5,38.7 5,28 2.5,28 2.5,42.3 5,42.3 5,31.8 12.5,42.5 20,31.8 20,42.3 22.5,42.3 
							22.5,28 						"/>
						<polygon id="Fill-4_64_" points="20,42.2 12.5,53.1 5,42.2 2.5,42.2 2.5,56.7 5,56.7 5,46 12.5,56.8 20,46 20,56.7 22.5,56.7 
							22.5,42.2 						"/>
						<polygon id="Fill-5_64_" points="20,56.3 12.5,67.2 5,56.3 2.5,56.3 2.5,70.8 5,70.8 5,60.2 12.5,71 20,60.2 20,70.8 
							22.5,70.8 22.5,56.3 						"/>
					</g>
				</g>
				<g id="Black-Icon-Only_65_" transform="translate(1625.000000, 0.000000)">
					<g id="Page-1_65_">
						<polygon id="Fill-1_65_" points="20,0 12.5,10.8 5,0 2.5,0 2.5,14.4 5,14.4 5,3.8 12.5,14.5 20,3.9 20,14.4 22.5,14.4 22.5,0 
													"/>
						<polygon id="Fill-2_65_" points="20,14 12.5,24.8 5,14 2.5,14 2.5,28.4 5,28.4 5,17.8 12.5,28.5 20,17.8 20,28.4 22.5,28.4 
							22.5,14 						"/>
						<polygon id="Fill-3_65_" points="20,28 12.5,38.7 5,28 2.5,28 2.5,42.3 5,42.3 5,31.8 12.5,42.5 20,31.8 20,42.3 22.5,42.3 
							22.5,28 						"/>
						<polygon id="Fill-4_65_" points="20,42.2 12.5,53.1 5,42.2 2.5,42.2 2.5,56.7 5,56.7 5,46 12.5,56.8 20,46 20,56.7 22.5,56.7 
							22.5,42.2 						"/>
						<polygon id="Fill-5_65_" points="20,56.3 12.5,67.2 5,56.3 2.5,56.3 2.5,70.8 5,70.8 5,60.2 12.5,71 20,60.2 20,70.8 
							22.5,70.8 22.5,56.3 						"/>
					</g>
				</g>
				<g id="Black-Icon-Only_66_" transform="translate(1650.000000, 0.000000)">
					<g id="Page-1_66_">
						<polygon id="Fill-1_66_" points="20,0 12.5,10.8 5,0 2.5,0 2.5,14.4 5,14.4 5,3.8 12.5,14.5 20,3.9 20,14.4 22.5,14.4 22.5,0 
													"/>
						<polygon id="Fill-2_66_" points="20,14 12.5,24.8 5,14 2.5,14 2.5,28.4 5,28.4 5,17.8 12.5,28.5 20,17.8 20,28.4 22.5,28.4 
							22.5,14 						"/>
						<polygon id="Fill-3_66_" points="20,28 12.5,38.7 5,28 2.5,28 2.5,42.3 5,42.3 5,31.8 12.5,42.5 20,31.8 20,42.3 22.5,42.3 
							22.5,28 						"/>
						<polygon id="Fill-4_66_" points="20,42.2 12.5,53.1 5,42.2 2.5,42.2 2.5,56.7 5,56.7 5,46 12.5,56.8 20,46 20,56.7 22.5,56.7 
							22.5,42.2 						"/>
						<polygon id="Fill-5_66_" points="20,56.3 12.5,67.2 5,56.3 2.5,56.3 2.5,70.8 5,70.8 5,60.2 12.5,71 20,60.2 20,70.8 
							22.5,70.8 22.5,56.3 						"/>
					</g>
				</g>
				<g id="Black-Icon-Only_67_" transform="translate(1675.000000, 0.000000)">
					<g id="Page-1_67_">
						<polygon id="Fill-1_67_" points="20,0 12.5,10.8 5,0 2.5,0 2.5,14.4 5,14.4 5,3.8 12.5,14.5 20,3.9 20,14.4 22.5,14.4 22.5,0 
													"/>
						<polygon id="Fill-2_67_" points="20,14 12.5,24.8 5,14 2.5,14 2.5,28.4 5,28.4 5,17.8 12.5,28.5 20,17.8 20,28.4 22.5,28.4 
							22.5,14 						"/>
						<polygon id="Fill-3_67_" points="20,28 12.5,38.7 5,28 2.5,28 2.5,42.3 5,42.3 5,31.8 12.5,42.5 20,31.8 20,42.3 22.5,42.3 
							22.5,28 						"/>
						<polygon id="Fill-4_67_" points="20,42.2 12.5,53.1 5,42.2 2.5,42.2 2.5,56.7 5,56.7 5,46 12.5,56.8 20,46 20,56.7 22.5,56.7 
							22.5,42.2 						"/>
						<polygon id="Fill-5_67_" points="20,56.3 12.5,67.2 5,56.3 2.5,56.3 2.5,70.8 5,70.8 5,60.2 12.5,71 20,60.2 20,70.8 
							22.5,70.8 22.5,56.3 						"/>
					</g>
				</g>
				<g id="Black-Icon-Only_68_" transform="translate(1700.000000, 0.000000)">
					<g id="Page-1_68_">
						<polygon id="Fill-1_68_" points="20,0 12.5,10.8 5,0 2.5,0 2.5,14.4 5,14.4 5,3.8 12.5,14.5 20,3.9 20,14.4 22.5,14.4 22.5,0 
													"/>
						<polygon id="Fill-2_68_" points="20,14 12.5,24.8 5,14 2.5,14 2.5,28.4 5,28.4 5,17.8 12.5,28.5 20,17.8 20,28.4 22.5,28.4 
							22.5,14 						"/>
						<polygon id="Fill-3_68_" points="20,28 12.5,38.7 5,28 2.5,28 2.5,42.3 5,42.3 5,31.8 12.5,42.5 20,31.8 20,42.3 22.5,42.3 
							22.5,28 						"/>
						<polygon id="Fill-4_68_" points="20,42.2 12.5,53.1 5,42.2 2.5,42.2 2.5,56.7 5,56.7 5,46 12.5,56.8 20,46 20,56.7 22.5,56.7 
							22.5,42.2 						"/>
						<polygon id="Fill-5_68_" points="20,56.3 12.5,67.2 5,56.3 2.5,56.3 2.5,70.8 5,70.8 5,60.2 12.5,71 20,60.2 20,70.8 
							22.5,70.8 22.5,56.3 						"/>
					</g>
				</g>
				<g id="Black-Icon-Only_69_" transform="translate(1725.000000, 0.000000)">
					<g id="Page-1_69_">
						<polygon id="Fill-1_69_" points="20,0 12.5,10.8 5,0 2.5,0 2.5,14.4 5,14.4 5,3.8 12.5,14.5 20,3.9 20,14.4 22.5,14.4 22.5,0 
													"/>
						<polygon id="Fill-2_69_" points="20,14 12.5,24.8 5,14 2.5,14 2.5,28.4 5,28.4 5,17.8 12.5,28.5 20,17.8 20,28.4 22.5,28.4 
							22.5,14 						"/>
						<polygon id="Fill-3_69_" points="20,28 12.5,38.7 5,28 2.5,28 2.5,42.3 5,42.3 5,31.8 12.5,42.5 20,31.8 20,42.3 22.5,42.3 
							22.5,28 						"/>
						<polygon id="Fill-4_69_" points="20,42.2 12.5,53.1 5,42.2 2.5,42.2 2.5,56.7 5,56.7 5,46 12.5,56.8 20,46 20,56.7 22.5,56.7 
							22.5,42.2 						"/>
						<polygon id="Fill-5_69_" points="20,56.3 12.5,67.2 5,56.3 2.5,56.3 2.5,70.8 5,70.8 5,60.2 12.5,71 20,60.2 20,70.8 
							22.5,70.8 22.5,56.3 						"/>
					</g>
				</g>
				<g id="Black-Icon-Only_70_" transform="translate(1750.000000, 0.000000)">
					<g id="Page-1_70_">
						<polygon id="Fill-1_70_" points="20,0 12.5,10.8 5,0 2.5,0 2.5,14.4 5,14.4 5,3.8 12.5,14.5 20,3.9 20,14.4 22.5,14.4 22.5,0 
													"/>
						<polygon id="Fill-2_70_" points="20,14 12.5,24.8 5,14 2.5,14 2.5,28.4 5,28.4 5,17.8 12.5,28.5 20,17.8 20,28.4 22.5,28.4 
							22.5,14 						"/>
						<polygon id="Fill-3_70_" points="20,28 12.5,38.7 5,28 2.5,28 2.5,42.3 5,42.3 5,31.8 12.5,42.5 20,31.8 20,42.3 22.5,42.3 
							22.5,28 						"/>
						<polygon id="Fill-4_70_" points="20,42.2 12.5,53.1 5,42.2 2.5,42.2 2.5,56.7 5,56.7 5,46 12.5,56.8 20,46 20,56.7 22.5,56.7 
							22.5,42.2 						"/>
						<polygon id="Fill-5_70_" points="20,56.3 12.5,67.2 5,56.3 2.5,56.3 2.5,70.8 5,70.8 5,60.2 12.5,71 20,60.2 20,70.8 
							22.5,70.8 22.5,56.3 						"/>
					</g>
				</g>
				<g id="Black-Icon-Only_71_" transform="translate(1775.000000, 0.000000)">
					<g id="Page-1_71_">
						<polygon id="Fill-1_71_" points="20,0 12.5,10.8 5,0 2.5,0 2.5,14.4 5,14.4 5,3.8 12.5,14.5 20,3.9 20,14.4 22.5,14.4 22.5,0 
													"/>
						<polygon id="Fill-2_71_" points="20,14 12.5,24.8 5,14 2.5,14 2.5,28.4 5,28.4 5,17.8 12.5,28.5 20,17.8 20,28.4 22.5,28.4 
							22.5,14 						"/>
						<polygon id="Fill-3_71_" points="20,28 12.5,38.7 5,28 2.5,28 2.5,42.3 5,42.3 5,31.8 12.5,42.5 20,31.8 20,42.3 22.5,42.3 
							22.5,28 						"/>
						<polygon id="Fill-4_71_" points="20,42.2 12.5,53.1 5,42.2 2.5,42.2 2.5,56.7 5,56.7 5,46 12.5,56.8 20,46 20,56.7 22.5,56.7 
							22.5,42.2 						"/>
						<polygon id="Fill-5_71_" points="20,56.3 12.5,67.2 5,56.3 2.5,56.3 2.5,70.8 5,70.8 5,60.2 12.5,71 20,60.2 20,70.8 
							22.5,70.8 22.5,56.3 						"/>
					</g>
				</g>
				<g id="Black-Icon-Only_72_" transform="translate(1800.000000, 0.000000)">
					<g id="Page-1_72_">
						<polygon id="Fill-1_72_" points="20,0 12.5,10.8 5,0 2.5,0 2.5,14.4 5,14.4 5,3.8 12.5,14.5 20,3.9 20,14.4 22.5,14.4 22.5,0 
													"/>
						<polygon id="Fill-2_72_" points="20,14 12.5,24.8 5,14 2.5,14 2.5,28.4 5,28.4 5,17.8 12.5,28.5 20,17.8 20,28.4 22.5,28.4 
							22.5,14 						"/>
						<polygon id="Fill-3_72_" points="20,28 12.5,38.7 5,28 2.5,28 2.5,42.3 5,42.3 5,31.8 12.5,42.5 20,31.8 20,42.3 22.5,42.3 
							22.5,28 						"/>
						<polygon id="Fill-4_72_" points="20,42.2 12.5,53.1 5,42.2 2.5,42.2 2.5,56.7 5,56.7 5,46 12.5,56.8 20,46 20,56.7 22.5,56.7 
							22.5,42.2 						"/>
						<polygon id="Fill-5_72_" points="20,56.3 12.5,67.2 5,56.3 2.5,56.3 2.5,70.8 5,70.8 5,60.2 12.5,71 20,60.2 20,70.8 
							22.5,70.8 22.5,56.3 						"/>
					</g>
				</g>
				<g id="Black-Icon-Only_73_" transform="translate(1825.000000, 0.000000)">
					<g id="Page-1_73_">
						<polygon id="Fill-1_73_" points="20,0 12.5,10.8 5,0 2.5,0 2.5,14.4 5,14.4 5,3.8 12.5,14.5 20,3.9 20,14.4 22.5,14.4 22.5,0 
													"/>
						<polygon id="Fill-2_73_" points="20,14 12.5,24.8 5,14 2.5,14 2.5,28.4 5,28.4 5,17.8 12.5,28.5 20,17.8 20,28.4 22.5,28.4 
							22.5,14 						"/>
						<polygon id="Fill-3_73_" points="20,28 12.5,38.7 5,28 2.5,28 2.5,42.3 5,42.3 5,31.8 12.5,42.5 20,31.8 20,42.3 22.5,42.3 
							22.5,28 						"/>
						<polygon id="Fill-4_73_" points="20,42.2 12.5,53.1 5,42.2 2.5,42.2 2.5,56.7 5,56.7 5,46 12.5,56.8 20,46 20,56.7 22.5,56.7 
							22.5,42.2 						"/>
						<polygon id="Fill-5_73_" points="20,56.3 12.5,67.2 5,56.3 2.5,56.3 2.5,70.8 5,70.8 5,60.2 12.5,71 20,60.2 20,70.8 
							22.5,70.8 22.5,56.3 						"/>
					</g>
				</g>
				<g id="Black-Icon-Only_74_" transform="translate(1850.000000, 0.000000)">
					<g id="Page-1_74_">
						<polygon id="Fill-1_74_" points="20,0 12.5,10.8 5,0 2.5,0 2.5,14.4 5,14.4 5,3.8 12.5,14.5 20,3.9 20,14.4 22.5,14.4 22.5,0 
													"/>
						<polygon id="Fill-2_74_" points="20,14 12.5,24.8 5,14 2.5,14 2.5,28.4 5,28.4 5,17.8 12.5,28.5 20,17.8 20,28.4 22.5,28.4 
							22.5,14 						"/>
						<polygon id="Fill-3_74_" points="20,28 12.5,38.7 5,28 2.5,28 2.5,42.3 5,42.3 5,31.8 12.5,42.5 20,31.8 20,42.3 22.5,42.3 
							22.5,28 						"/>
						<polygon id="Fill-4_74_" points="20,42.2 12.5,53.1 5,42.2 2.5,42.2 2.5,56.7 5,56.7 5,46 12.5,56.8 20,46 20,56.7 22.5,56.7 
							22.5,42.2 						"/>
						<polygon id="Fill-5_74_" points="20,56.3 12.5,67.2 5,56.3 2.5,56.3 2.5,70.8 5,70.8 5,60.2 12.5,71 20,60.2 20,70.8 
							22.5,70.8 22.5,56.3 						"/>
					</g>
				</g>
				<g id="Black-Icon-Only_75_" transform="translate(1875.000000, 0.000000)">
					<g id="Page-1_75_">
						<polygon id="Fill-1_75_" points="20,0 12.5,10.8 5,0 2.5,0 2.5,14.4 5,14.4 5,3.8 12.5,14.5 20,3.9 20,14.4 22.5,14.4 22.5,0 
													"/>
						<polygon id="Fill-2_75_" points="20,14 12.5,24.8 5,14 2.5,14 2.5,28.4 5,28.4 5,17.8 12.5,28.5 20,17.8 20,28.4 22.5,28.4 
							22.5,14 						"/>
						<polygon id="Fill-3_75_" points="20,28 12.5,38.7 5,28 2.5,28 2.5,42.3 5,42.3 5,31.8 12.5,42.5 20,31.8 20,42.3 22.5,42.3 
							22.5,28 						"/>
						<polygon id="Fill-4_75_" points="20,42.2 12.5,53.1 5,42.2 2.5,42.2 2.5,56.7 5,56.7 5,46 12.5,56.8 20,46 20,56.7 22.5,56.7 
							22.5,42.2 						"/>
						<polygon id="Fill-5_75_" points="20,56.3 12.5,67.2 5,56.3 2.5,56.3 2.5,70.8 5,70.8 5,60.2 12.5,71 20,60.2 20,70.8 
							22.5,70.8 22.5,56.3 						"/>
					</g>
				</g>
			</g>
		</g>
	</g>
</g>
</svg>
